<svg viewBox="128.92499999999995 228.5 845.1750000000001 571.25" xmlns="http://www.w3.org/2000/svg" xmlns:xlink="http://www.w3.org/1999/xlink" overflow="visible" width="845.1750000000001px" height="571.25px"><defs><polygon id="mastersceneshome-office-path-1" points="0.605524272 126.577031 176.367413 126.577031 176.367413 0.366893082 0.605524272 0.366893082"/></defs><g id="Master/Scenes/Home Office" stroke="none" stroke-width="1" fill="none" fill-rule="evenodd"><g id="Floor/Carpet" transform="translate(304.721600, 664.398000) scale(1 1)"><g id="Floor/Carpet/White" stroke="none" stroke-width="1" fill="none" fill-rule="evenodd"><g id="Simple-Carpet" transform="translate(41.000000, 32.000000)"><path d="M450.8618,46.9304 C450.8618,72.5734 350.0448,93.3614 225.6808,93.3614 C101.3178,93.3614 0.5008,72.5734 0.5008,46.9304 C0.5008,21.2864 101.3178,0.4994 225.6808,0.4994 C350.0448,0.4994 450.8618,21.2864 450.8618,46.9304" id="Carpet" fill="#FDD"/><path d="M27.204,55.534 C27.48,55.534 27.704,55.31 27.704,55.034 C27.704,54.017 28.708,53.213 29.77,53.61 C30.001,53.694 30.257,53.604 30.38,53.392 C30.658,52.91 31.151,52.622 31.697,52.622 C32.387,52.622 32.992,53.092 33.168,53.764 C33.214,53.94 33.351,54.077 33.527,54.122 C33.701,54.168 33.889,54.113 34.014,53.982 C34.306,53.676 34.697,53.507 35.116,53.507 C35.958,53.507 36.644,54.192 36.644,55.034 C36.644,55.31 36.868,55.534 37.144,55.534 C37.42,55.534 37.644,55.31 37.644,55.034 C37.644,53.64 36.51,52.507 35.116,52.507 C34.665,52.507 34.234,52.624 33.854,52.845 C33.406,52.1 32.595,51.622 31.697,51.622 C30.936,51.622 30.217,51.974 29.741,52.561 C28.168,52.228 26.704,53.471 26.704,55.034 C26.704,55.31 26.928,55.534 27.204,55.534 M370.476,81.984 C330.035,88.998 278.613,92.861 225.681,92.861 C101.792,92.861 1,72.257 1,46.93 C1,46.654 0.777,46.43 0.5,46.43 C0.224,46.43 0,46.654 0,46.93 C0,59.596 23.565,71.429 66.353,80.252 C108.917,89.028 165.5,93.861 225.681,93.861 C278.668,93.861 330.151,89.993 370.647,82.969 C370.919,82.922 371.101,82.663 371.054,82.391 C371.007,82.118 370.748,81.928 370.476,81.984 M84.281,48.887 C84.557,48.887 84.781,48.663 84.781,48.387 C84.781,47.368 85.792,46.565 86.846,46.962 C87.074,47.049 87.334,46.957 87.457,46.745 C87.735,46.263 88.227,45.974 88.774,45.974 C89.464,45.974 90.069,46.444 90.245,47.116 C90.291,47.291 90.428,47.428 90.603,47.473 C90.78,47.517 90.965,47.465 91.09,47.335 C91.383,47.027 91.775,46.858 92.193,46.858 C93.035,46.858 93.721,47.544 93.721,48.387 C93.721,48.663 93.944,48.887 94.221,48.887 C94.497,48.887 94.721,48.663 94.721,48.387 C94.721,46.992 93.587,45.858 92.193,45.858 C91.742,45.858 91.311,45.975 90.932,46.197 C90.483,45.453 89.672,44.974 88.774,44.974 C88.013,44.974 87.294,45.326 86.819,45.914 C85.248,45.571 83.781,46.822 83.781,48.387 C83.781,48.663 84.004,48.887 84.281,48.887 M374.247,70.53 C373.797,70.53 373.366,70.647 372.986,70.869 C372.538,70.125 371.727,69.645 370.829,69.645 C370.068,69.645 369.35,69.998 368.873,70.586 C367.301,70.244 365.835,71.494 365.835,73.058 C365.835,73.335 366.059,73.558 366.335,73.558 C366.612,73.558 366.835,73.335 366.835,73.058 C366.835,72.04 367.846,71.236 368.901,71.634 C369.127,71.721 369.389,71.63 369.512,71.417 C369.79,70.933 370.282,70.645 370.829,70.645 C371.518,70.645 372.123,71.115 372.299,71.788 C372.346,71.963 372.482,72.099 372.658,72.145 C372.834,72.191 373.019,72.137 373.145,72.007 C373.438,71.699 373.829,71.53 374.247,71.53 C375.09,71.53 375.775,72.216 375.775,73.058 C375.775,73.335 375.999,73.558 376.275,73.558 C376.552,73.558 376.775,73.335 376.775,73.058 C376.775,71.664 375.641,70.53 374.247,70.53 M381.316,49.296 C380.866,49.296 380.434,49.413 380.055,49.634 C379.607,48.889 378.796,48.411 377.898,48.411 C377.137,48.411 376.418,48.763 375.942,49.35 C374.366,49.02 372.905,50.262 372.905,51.823 C372.905,52.099 373.128,52.323 373.405,52.323 C373.681,52.323 373.905,52.099 373.905,51.823 C373.905,50.806 374.908,50 375.971,50.399 C376.2,50.485 376.458,50.393 376.58,50.181 C376.859,49.699 377.351,49.411 377.898,49.411 C378.587,49.411 379.192,49.881 379.369,50.554 C379.415,50.729 379.552,50.866 379.728,50.911 C379.903,50.957 380.09,50.902 380.215,50.771 C380.507,50.465 380.898,50.296 381.316,50.296 C382.159,50.296 382.845,50.981 382.845,51.823 C382.845,52.099 383.068,52.323 383.345,52.323 C383.621,52.323 383.845,52.099 383.845,51.823 C383.845,50.43 382.71,49.296 381.316,49.296 M322.598,41.208 C322.874,41.208 323.098,40.984 323.098,40.708 C323.098,39.691 324.101,38.886 325.164,39.284 C325.394,39.368 325.651,39.277 325.774,39.066 C326.052,38.584 326.545,38.296 327.091,38.296 C327.781,38.296 328.386,38.765 328.562,39.438 C328.608,39.614 328.746,39.751 328.921,39.796 C329.096,39.842 329.283,39.787 329.408,39.656 C329.7,39.349 330.091,39.18 330.51,39.18 C331.352,39.18 332.038,39.866 332.038,40.708 C332.038,40.984 332.262,41.208 332.538,41.208 C332.814,41.208 333.038,40.984 333.038,40.708 C333.038,39.314 331.904,38.18 330.51,38.18 C330.059,38.18 329.628,38.298 329.248,38.518 C328.8,37.774 327.989,37.296 327.091,37.296 C326.33,37.296 325.611,37.648 325.135,38.235 C323.559,37.903 322.099,39.145 322.098,40.708 C322.098,40.984 322.322,41.208 322.598,41.208 M261.808,79.283 C262.084,79.283 262.308,79.059 262.308,78.783 C262.308,77.766 263.312,76.961 264.374,77.359 C264.603,77.443 264.861,77.353 264.983,77.141 C265.262,76.659 265.754,76.371 266.301,76.371 C266.99,76.371 267.595,76.841 267.772,77.513 C267.818,77.687 267.955,77.824 268.13,77.87 C268.306,77.915 268.492,77.862 268.617,77.731 C268.91,77.425 269.301,77.256 269.719,77.256 C270.562,77.256 271.247,77.941 271.247,78.783 C271.247,79.059 271.471,79.283 271.747,79.283 C272.024,79.283 272.247,79.059 272.247,78.783 C272.247,77.389 271.113,76.256 269.719,76.256 C269.268,76.256 268.837,76.373 268.458,76.594 C268.01,75.849 267.199,75.371 266.301,75.371 C265.54,75.371 264.821,75.723 264.345,76.31 C262.77,75.98 261.308,77.221 261.308,78.783 C261.308,79.059 261.531,79.283 261.808,79.283 M149.03,69.412 C148.582,68.668 147.771,68.189 146.873,68.189 C146.112,68.189 145.393,68.542 144.917,69.129 C143.341,68.798 141.88,70.039 141.88,71.601 C141.88,71.878 142.103,72.101 142.38,72.101 C142.656,72.101 142.88,71.878 142.88,71.601 C142.879,70.585 143.883,69.779 144.946,70.178 C145.176,70.262 145.433,70.171 145.556,69.96 C145.834,69.477 146.327,69.189 146.873,69.189 C147.562,69.189 148.167,69.659 148.344,70.332 C148.39,70.508 148.527,70.644 148.703,70.689 C148.878,70.735 149.065,70.68 149.19,70.55 C149.482,70.243 149.873,70.074 150.291,70.074 C151.134,70.074 151.82,70.76 151.82,71.601 C151.82,71.878 152.043,72.101 152.32,72.101 C152.596,72.101 152.82,71.878 152.82,71.601 C152.82,70.208 151.685,69.074 150.291,69.074 C149.841,69.074 149.41,69.191 149.03,69.412 M130.1,5.378 C130.116,5.378 130.132,5.377 130.149,5.376 C160.142,2.471 192.284,1 225.681,1 C225.957,1 226.181,0.776 226.181,0.5 C226.181,0.223 225.957,-1.13686838e-13 225.681,-1.13686838e-13 C192.252,-1.13686838e-13 160.078,1.473 130.052,4.38 C129.777,4.407 129.576,4.651 129.603,4.926 C129.628,5.184 129.846,5.378 130.1,5.378 M239.764,16.89 C240.04,16.89 240.264,16.667 240.264,16.39 C240.264,15.374 241.268,14.569 242.331,14.967 C242.561,15.051 242.818,14.961 242.94,14.749 C243.218,14.266 243.711,13.978 244.257,13.978 C244.947,13.978 245.552,14.448 245.728,15.12 C245.774,15.295 245.911,15.431 246.087,15.477 C246.262,15.521 246.448,15.469 246.574,15.339 C246.866,15.032 247.258,14.863 247.676,14.863 C248.518,14.863 249.204,15.549 249.204,16.39 C249.204,16.667 249.428,16.89 249.704,16.89 C249.98,16.89 250.204,16.667 250.204,16.39 C250.204,14.997 249.07,13.863 247.676,13.863 C247.225,13.863 246.794,13.98 246.415,14.201 C245.967,13.457 245.156,12.978 244.257,12.978 C243.496,12.978 242.777,13.331 242.301,13.918 C240.73,13.587 239.264,14.828 239.264,16.39 C239.264,16.667 239.488,16.89 239.764,16.89" id="Fill-15" fill="#000"/></g></g></g><g id="Desk" transform="translate(436.000000, 478.770000)"><polygon fill="#83BB9E" points="268.0898 54.7969 1.3518 54.7969 1.3518 121.4819 84.7078 121.4819 84.7078 73.6429 268.0898 73.6429"/><path d="M268.0898,54.2969 C267.8138,54.2969 267.5898,54.5209 267.5898,54.7969 L267.5898,73.3839 L1.8518,73.3839 L1.8518,54.7969 C1.8518,54.5209 1.6288,54.2969 1.3518,54.2969 C1.0758,54.2969 0.8518,54.5209 0.8518,54.7969 L0.8518,243.0109 C0.8518,243.2869 1.0758,243.5109 1.3518,243.5109 C1.6288,243.5109 1.8518,243.2869 1.8518,243.0109 L1.8518,74.3839 L267.5898,74.3839 L267.5898,243.0109 C267.5898,243.2869 267.8138,243.5109 268.0898,243.5109 C268.3658,243.5109 268.5898,243.2869 268.5898,243.0109 L268.5898,54.7969 C268.5898,54.5209 268.3658,54.2969 268.0898,54.2969 L268.0898,54.2969 Z M26.2548,84.7389 L60.2878,84.7389 L60.2878,83.0819 L26.2548,83.0819 L26.2548,84.7389 Z M60.7878,82.0819 L25.7548,82.0819 C25.4788,82.0819 25.2548,82.3059 25.2548,82.5819 L25.2548,85.2389 C25.2548,85.5159 25.4788,85.7389 25.7548,85.7389 L60.7878,85.7389 C61.0648,85.7389 61.2878,85.5159 61.2878,85.2389 L61.2878,82.5819 C61.2878,82.3059 61.0648,82.0819 60.7878,82.0819 L60.7878,82.0819 Z" id="Fill-44" fill="#000"/><polygon id="Fill-45" fill="#E2A2B5" points="6.4996 54.839 19.9046 54.839 19.9046 0.23 6.4996 0.23"/><polygon id="Fill-46" fill="#94B1EB" points="19.9046 54.839 33.3096 54.839 33.3096 12.338 19.9046 12.338"/><path d="M33.31,11.8377 C33.033,11.8377 32.81,12.0617 32.81,12.3377 L32.81,54.3387 L20.405,54.3387 L20.405,20.7897 C20.405,20.5137 20.181,20.2897 19.905,20.2897 C19.628,20.2897 19.405,20.5137 19.405,20.7897 L19.405,54.3387 L6.5,54.3387 C6.224,54.3387 6,54.5627 6,54.8387 C6,55.1157 6.224,55.3387 6.5,55.3387 L33.31,55.3387 C33.586,55.3387 33.81,55.1157 33.81,54.8387 L33.81,12.3377 C33.81,12.0617 33.586,11.8377 33.31,11.8377" id="Path" fill="#000"/></g><g id="Chair" transform="translate(712.000000, 465.000000)"><polygon fill="#94B1EB" points="0.4991 151.593 108.5821 151.593 108.5821 136.593 0.4991 136.593"/><path d="M131.249,71.057 C129.285,74.494 126.985,76.475 124.529,76.475 C117.344,76.475 111.499,59.546 111.499,38.737 C111.499,17.929 117.344,1 124.529,1 C131.713,1 137.559,17.929 137.559,38.737 C137.559,52.194 135.113,64.02 131.442,70.703 C131.331,70.788 131.259,70.913 131.249,71.057 Z M124.529,0 C116.662,0 110.499,17.015 110.499,38.737 C110.499,60.46 116.662,77.475 124.529,77.475 C127.021,77.475 129.341,75.764 131.349,72.739 C132.51,91.369 129.258,117.324 108.229,138.353 C108.034,138.549 108.034,138.865 108.229,139.06 C108.327,139.158 108.455,139.207 108.583,139.207 C108.711,139.207 108.838,139.158 108.936,139.06 C130.769,117.227 133.677,90.177 132.249,71.257 C136.075,64.408 138.559,52.524 138.559,38.737 C138.559,17.015 132.396,0 124.529,0 Z M109.083,136.821 C109.083,136.545 108.859,136.321 108.583,136.321 L0.5,136.321 C0.223,136.321 -1.27897692e-12,136.545 -1.27897692e-12,136.821 L-1.27897692e-12,150.593 C-1.27897692e-12,150.869 0.223,151.093 0.5,151.093 C0.776,151.093 1,150.869 1,150.593 L1,137.321 L108.583,137.321 C108.859,137.321 109.083,137.098 109.083,136.821 M86.426,241.555184 L57.378,222.819344 L57.378,140.49861 C57.378,140.232684 57.154,140.018598 56.878,140.018598 C56.601,140.018598 56.378,140.232684 56.378,140.49861 L56.378,222.819344 L27.159,241.664626 C26.239,241.304617 25.235,241.103012 24.18,241.103012 C19.821,241.103012 16.288,244.495739 16.288,248.679526 C16.288,252.865233 19.821,256.257 24.18,256.257 C28.539,256.257 32.073,252.865233 32.073,248.679526 C32.073,245.901215 30.509,243.478113 28.186,242.159999 L56.378,223.976174 L56.378,241.127013 C52.253,241.376619 48.985,244.657983 48.985,248.679526 C48.985,252.865233 52.519,256.257 56.878,256.257 C61.237,256.257 64.77,252.865233 64.77,248.679526 C64.77,244.657023 61.503,241.375659 57.378,241.127013 L57.378,223.976174 L85.341,242.012155 C82.876,243.294748 81.2,245.798492 81.2,248.679526 C81.2,252.865233 84.734,256.257 89.092,256.257 C93.452,256.257 96.985,252.865233 96.985,248.679526 C96.985,244.495739 93.452,241.103012 89.092,241.103012 C88.156,241.103012 87.26,241.267176 86.426,241.555184 Z" id="Fill-161" fill="#000"/></g><g id="Chair" transform="translate(354.500000, 595.500000) scale(-1, 1) translate(-354.500000, -595.500000) translate(285.000000, 467.000000)"><path d="M131.249,71.057 C129.285,74.494 126.985,76.475 124.529,76.475 C117.344,76.475 111.499,59.546 111.499,38.737 C111.499,17.929 117.344,1 124.529,1 C131.713,1 137.559,17.929 137.559,38.737 C137.559,52.194 135.113,64.02 131.442,70.703 C131.331,70.788 131.259,70.913 131.249,71.057 Z M124.529,0 C116.662,0 110.499,17.015 110.499,38.737 C110.499,60.46 116.662,77.475 124.529,77.475 C127.021,77.475 129.341,75.764 131.349,72.739 C132.51,91.369 129.258,117.324 108.229,138.353 C108.034,138.549 108.034,138.865 108.229,139.06 C108.327,139.158 108.455,139.207 108.583,139.207 C108.711,139.207 108.838,139.158 108.936,139.06 C130.769,117.227 133.677,90.177 132.249,71.257 C136.075,64.408 138.559,52.524 138.559,38.737 C138.559,17.015 132.396,0 124.529,0 Z M109.083,136.821 C109.083,136.545 108.859,136.321 108.583,136.321 L0.5,136.321 C0.223,136.321 -1.27897692e-12,136.545 -1.27897692e-12,136.821 L-1.27897692e-12,150.593 C-1.27897692e-12,150.869 0.223,151.093 0.5,151.093 C0.776,151.093 1,150.869 1,150.593 L1,137.321 L108.583,137.321 C108.859,137.321 109.083,137.098 109.083,136.821 M86.426,241.555184 L57.378,222.819344 L57.378,140.49861 C57.378,140.232684 57.154,140.018598 56.878,140.018598 C56.601,140.018598 56.378,140.232684 56.378,140.49861 L56.378,222.819344 L27.159,241.664626 C26.239,241.304617 25.235,241.103012 24.18,241.103012 C19.821,241.103012 16.288,244.495739 16.288,248.679526 C16.288,252.865233 19.821,256.257 24.18,256.257 C28.539,256.257 32.073,252.865233 32.073,248.679526 C32.073,245.901215 30.509,243.478113 28.186,242.159999 L56.378,223.976174 L56.378,241.127013 C52.253,241.376619 48.985,244.657983 48.985,248.679526 C48.985,252.865233 52.519,256.257 56.878,256.257 C61.237,256.257 64.77,252.865233 64.77,248.679526 C64.77,244.657023 61.503,241.375659 57.378,241.127013 L57.378,223.976174 L85.341,242.012155 C82.876,243.294748 81.2,245.798492 81.2,248.679526 C81.2,252.865233 84.734,256.257 89.092,256.257 C93.452,256.257 96.985,252.865233 96.985,248.679526 C96.985,244.495739 93.452,241.103012 89.092,241.103012 C88.156,241.103012 87.26,241.267176 86.426,241.555184 Z" id="Fill-161" fill="#000"/><polygon fill="#EC7068" points="0.4991 151.593 108.5821 151.593 108.5821 137.822 0.4991 137.822"/></g><g id="Table top" transform="translate(421.000000, 378.000000) scale(1 1)"><g id="Table top/Lamp" stroke="none" stroke-width="1" fill="none" fill-rule="evenodd"><g id="Desktop-Lamp" transform="translate(51.000000, 47.000000)"><g id="Desk-Top"><path d="M89.0718,59.174 C89.0718,62.675 86.2338,65.513 82.7328,65.513 C79.2318,65.513 76.3938,62.675 76.3938,59.174 C76.3938,55.673 79.2318,52.835 82.7328,52.835 C86.2338,52.835 89.0718,55.673 89.0718,59.174" id="Fill-154" fill="#F9E272"/><path d="M55.8238,59.174 L106.7708,59.174 C106.7708,46.217 96.8208,35.59 84.1448,34.502 C84.1808,34.278 84.2138,34.053 84.2138,33.819 C84.2138,31.442 82.2868,29.515 79.9098,29.515 C79.6308,29.515 79.3588,29.546 79.0948,29.597 L51.2398,8.475 C51.2888,8.129 51.3228,7.778 51.3228,7.419 C51.3228,3.321 48.0018,0 43.9048,0 C39.8078,0 36.4868,3.321 36.4868,7.419 C36.4868,10.078 37.8908,12.404 39.9938,13.714 L22.2258,103.729 L5.8148,103.729 C2.9148,103.729 0.5638,106.079 0.5638,108.98 L48.8558,108.98 C48.8558,106.079 46.5048,103.729 43.6048,103.729 L26.9998,103.729 L44.5538,14.804 C46.2838,14.653 47.8408,13.91 49.0258,12.778 L75.6888,32.996 C75.6368,33.263 75.6058,33.537 75.6058,33.819 C75.6058,34.193 75.6678,34.548 75.7578,34.893 C64.3948,37.144 55.8238,47.151 55.8238,59.174" id="Lamp" fill="#EC7068"/><path d="M36.147,103.1105 L5.815,103.1105 C5.474,103.1105 5.197,103.3865 5.197,103.7285 C5.197,104.0705 5.474,104.3465 5.815,104.3465 L36.147,104.3465 C36.488,104.3465 36.765,104.0705 36.765,103.7285 C36.765,103.3865 36.488,103.1105 36.147,103.1105 M106.771,58.6285 L56.376,58.6285 C56.626,47.4965 64.52,37.9155 75.388,35.5325 C76.083,37.3605 77.84,38.6695 79.91,38.6695 C80.211,38.6695 80.456,38.4245 80.456,38.1235 C80.456,37.8215 80.211,37.5775 79.91,37.5775 C77.837,37.5775 76.151,35.8905 76.151,33.8185 C76.151,31.7465 77.837,30.0605 79.91,30.0605 C80.211,30.0605 80.456,29.8165 80.456,29.5145 C80.456,29.2135 80.211,28.9685 79.91,28.9685 C77.235,28.9685 75.06,31.1445 75.06,33.8185 C75.06,34.0435 75.096,34.2575 75.126,34.4745 C63.598,37.0145 55.278,47.3085 55.278,59.1735 C55.278,59.4755 55.522,59.7195 55.824,59.7195 L106.771,59.7195 C107.073,59.7195 107.317,59.4755 107.317,59.1735 C107.317,58.8725 107.073,58.6285 106.771,58.6285 M51.323,6.8735 C51.021,6.8735 50.777,7.1175 50.777,7.4195 C50.777,11.2085 47.694,14.2915 43.905,14.2915 C40.115,14.2915 37.032,11.2085 37.032,7.4195 C37.032,7.1175 36.788,6.8735 36.486,6.8735 C36.185,6.8735 35.94,7.1175 35.94,7.4195 C35.94,11.8105 39.513,15.3825 43.905,15.3825 C48.296,15.3825 51.869,11.8105 51.869,7.4195 C51.869,7.1175 51.625,6.8735 51.323,6.8735" id="Fill-156" fill="#000"/></g></g></g></g><g id="Wall Decor" transform="translate(781.968000, 206.018000) scale(1 1)"><g id="Wall Decor/Calendar" stroke="none" stroke-width="1" fill="none" fill-rule="evenodd"><g id="Calendar" transform="translate(46.000000, 63.000000)"><polygon id="Fill-1" fill="#F1EFEF" points="0 124.119 136.268 124.119 136.268 7.716 0 7.716"/><polygon id="Month" fill="#EC7068" points="9.02 35.214 127.892 35.214 127.892 28.127 9.02 28.127"/><path d="M64.794,16.43 L72.119,16.43 L72.119,0.844 L64.794,0.844 L64.794,16.43 Z M64.372,17.274 L72.541,17.274 C72.774,17.274 72.963,17.085 72.963,16.852 L72.963,0.422 C72.963,0.189 72.774,0 72.541,0 L64.372,0 C64.138,0 63.95,0.189 63.95,0.422 L63.95,16.852 C63.95,17.085 64.138,17.274 64.372,17.274 L64.372,17.274 Z M94.35,51.142 L110.489,51.142 L110.489,35.637 L94.35,35.637 L94.35,51.142 Z M94.35,69.584 L110.489,69.584 L110.489,51.985 L94.35,51.985 L94.35,69.584 Z M94.35,88.027 L110.489,88.027 L110.489,70.428 L94.35,70.428 L94.35,88.027 Z M94.35,106.47 L110.489,106.47 L110.489,88.871 L94.35,88.871 L94.35,106.47 Z M77.369,51.142 L93.507,51.142 L93.507,35.637 L77.369,35.637 L77.369,51.142 Z M77.369,69.584 L93.507,69.584 L93.507,51.985 L77.369,51.985 L77.369,69.584 Z M77.369,88.027 L93.507,88.027 L93.507,70.428 L77.369,70.428 L77.369,88.027 Z M77.369,106.47 L93.507,106.47 L93.507,88.871 L77.369,88.871 L77.369,106.47 Z M60.387,51.142 L76.525,51.142 L76.525,35.637 L60.387,35.637 L60.387,51.142 Z M60.387,69.584 L76.525,69.584 L76.525,51.985 L60.387,51.985 L60.387,69.584 Z M60.387,88.027 L76.525,88.027 L76.525,70.428 L60.387,70.428 L60.387,88.027 Z M60.387,106.47 L76.525,106.47 L76.525,88.871 L60.387,88.871 L60.387,106.47 Z M43.405,51.142 L59.544,51.142 L59.544,35.637 L43.405,35.637 L43.405,51.142 Z M43.405,69.584 L59.544,69.584 L59.544,51.985 L43.405,51.985 L43.405,69.584 Z M43.405,88.027 L59.544,88.027 L59.544,70.428 L43.405,70.428 L43.405,88.027 Z M43.405,106.47 L59.544,106.47 L59.544,88.871 L43.405,88.871 L43.405,106.47 Z M26.423,51.142 L42.561,51.142 L42.561,35.637 L26.423,35.637 L26.423,51.142 Z M26.423,69.584 L42.561,69.584 L42.561,51.985 L26.423,51.985 L26.423,69.584 Z M26.423,88.027 L42.561,88.027 L42.561,70.428 L26.423,70.428 L26.423,88.027 Z M26.423,106.47 L42.561,106.47 L42.561,88.871 L26.423,88.871 L26.423,106.47 Z M127.892,51.985 C128.126,51.985 128.314,51.796 128.314,51.563 C128.314,51.331 128.126,51.142 127.892,51.142 L111.333,51.142 L111.333,35.636 L127.892,35.636 C128.126,35.636 128.314,35.447 128.314,35.214 C128.314,34.981 128.126,34.792 127.892,34.792 L9.02,34.792 C8.787,34.792 8.598,34.981 8.598,35.214 C8.598,35.447 8.787,35.636 9.02,35.636 L25.58,35.636 L25.58,51.142 L9.02,51.142 C8.787,51.142 8.598,51.331 8.598,51.563 C8.598,51.796 8.787,51.985 9.02,51.985 L25.58,51.985 L25.58,69.584 L9.02,69.584 C8.787,69.584 8.598,69.773 8.598,70.006 C8.598,70.239 8.787,70.428 9.02,70.428 L25.58,70.428 L25.58,88.027 L9.02,88.027 C8.787,88.027 8.598,88.216 8.598,88.449 C8.598,88.682 8.787,88.871 9.02,88.871 L25.58,88.871 L25.58,106.47 L9.02,106.47 C8.787,106.47 8.598,106.659 8.598,106.892 C8.598,107.125 8.787,107.314 9.02,107.314 L127.892,107.314 C128.126,107.314 128.314,107.125 128.314,106.892 C128.314,106.659 128.126,106.47 127.892,106.47 L111.333,106.47 L111.333,88.871 L127.892,88.871 C128.126,88.871 128.314,88.682 128.314,88.449 C128.314,88.216 128.126,88.027 127.892,88.027 L111.333,88.027 L111.333,70.428 L127.892,70.428 C128.126,70.428 128.314,70.239 128.314,70.006 C128.314,69.773 128.126,69.584 127.892,69.584 L111.333,69.584 L111.333,51.985 L127.892,51.985 Z" id="Fill-3" fill="#000"/></g></g></g><g id="Object" transform="translate(91.106000, 283.345000) scale(1 1)"><g id="Object/Wavy Plant" stroke="none" stroke-width="1" fill="none" fill-rule="evenodd"><g id="Wavy-Plant" transform="translate(45.000000, 190.000000)"><path d="M78.2952755,248.359229 L32.6422755,248.359229 C23.8992755,248.359229 16.8112755,241.271229 16.8112755,232.528229 L16.8112755,165.246229 L94.1262755,165.246229 L94.1262755,232.528229 C94.1262755,241.271229 87.0382755,248.359229 78.2952755,248.359229" id="Pot" fill="#94B1EB"/><path d="M159.842675,7.43402872 C139.090675,-12.8459713 112.830675,17.8100287 112.830675,17.8100287 C112.830675,17.8100287 89.7736755,-10.3579713 79.2946755,42.1650287 C79.2946755,42.1650287 52.5516755,23.5320287 61.1246755,66.3890287 C61.1246755,66.3890287 46.1976755,64.1450287 49.5816755,90.9210287 C47.2326755,91.3470287 45.5886755,91.8920287 45.5886755,91.8920287 C42.8736755,76.9220287 35.7476755,53.2490287 13.6916755,65.8050287 C-8.36532451,78.3590287 24.5506755,96.3440287 22.4676755,98.7190287 C20.3846755,101.095029 8.26267549,91.8920287 0.797675487,101.434029 C-6.66832451,110.976029 41.1766755,125.865029 23.8716755,125.186029 C6.56567549,124.508029 -0.560324513,137.742029 22.4676755,147.243029 C45.4946755,156.744029 47.8996755,165.791029 48.3026755,165.246029 C50.6566755,162.061029 52.7596755,159.109029 54.6456755,156.360029 C55.1356755,157.074029 55.6326755,157.782029 56.1456755,158.479029 L61.1246755,165.246029 C61.1246755,165.246029 127.299675,135.748029 112.207675,127.716029 C97.1146755,119.684029 98.0576755,118.269029 113.150675,103.648029 C128.242675,89.0270287 121.168675,86.6690287 110.320675,81.9530287 C99.4726755,77.2360287 117.466675,68.2750287 125.412675,64.5020287 C133.359675,60.7290287 159.842675,52.2400287 142.391675,37.6190287 C124.941675,22.9980287 180.594675,27.7140287 159.842675,7.43402872" id="Fill-29" fill="#83BB9E"/><path d="M17.3113755,232.528229 L17.3113755,165.246229 L16.3113755,165.246229 L16.3113755,232.528229 C16.3113755,241.533229 23.6373755,248.859229 32.6423755,248.859229 L32.6423755,247.859229 C24.1883755,247.859229 17.3113755,240.981229 17.3113755,232.528229 M108.150375,24.5042287 C108.204375,24.5222287 108.259375,24.5312287 108.313375,24.5312287 C108.520375,24.5312287 108.714375,24.4022287 108.786375,24.1952287 C110.019375,20.6332287 120.701375,11.0322287 120.809375,10.9362287 C121.015375,10.7512287 121.032375,10.4352287 120.848375,10.2302287 C120.663375,10.0242287 120.346375,10.0072287 120.142375,10.1912287 C119.693375,10.5922287 109.158375,20.0642287 107.841375,23.8672287 C107.750375,24.1282287 107.889375,24.4132287 108.150375,24.5042287 M36.7173755,153.900229 C32.7693755,151.396229 28.0393755,149.001229 22.6583755,146.781229 C12.7513755,142.693229 7.46037549,137.404229 8.50337549,132.631229 C9.46637549,128.225229 15.7713755,125.353229 23.8523755,125.686229 C24.1373755,125.699229 24.3603755,125.482229 24.3713755,125.206229 C24.3813755,124.930229 24.1663755,124.697229 23.8913755,124.686229 C15.1793755,124.345229 8.61237549,127.452229 7.52637549,132.417229 C6.37137549,137.703229 11.8853755,143.418229 22.2763755,147.705229 C27.6033755,149.903229 32.2823755,152.271229 36.1823755,154.744229 C36.2653755,154.797229 36.3573755,154.822229 36.4493755,154.822229 C36.6153755,154.822229 36.7773755,154.740229 36.8723755,154.590229 C37.0203755,154.356229 36.9513755,154.048229 36.7173755,153.900229 M125.198375,64.0502287 C117.105375,67.8932287 106.355375,73.5562287 106.435375,78.3602287 C106.462375,79.9972287 107.702375,81.3602287 110.121375,82.4122287 L111.155375,82.8592287 C116.471375,85.1592287 120.669375,86.9752287 121.235375,90.0762287 C121.769375,93.0002287 119.090375,97.1982287 112.803375,103.289229 C104.403375,111.425229 100.388375,115.495229 100.890375,119.049229 C101.309375,122.018229 104.647375,124.258229 111.972375,128.157229 C112.047375,128.197229 112.127375,128.215229 112.207375,128.215229 C112.385375,128.215229 112.559375,128.120229 112.648375,127.951229 C112.778375,127.707229 112.686375,127.404229 112.442375,127.274229 C105.570375,123.617229 102.236375,121.432229 101.880375,118.908229 C101.447375,115.838229 105.346375,111.905229 113.498375,104.007229 C120.137375,97.5762287 122.827375,93.2232287 122.219375,89.8962287 C121.557375,86.2692287 117.142375,84.3602287 111.552375,81.9422287 L110.519375,81.4942287 C108.493375,80.6132287 107.455375,79.5522287 107.435375,78.3432287 C107.383375,75.2152287 113.504375,70.7102287 125.627375,64.9542287 C125.876375,64.8352287 125.983375,64.5372287 125.864375,64.2882287 C125.746375,64.0382287 125.449375,63.9332287 125.198375,64.0502287 M60.6183755,163.714229 L56.5483755,158.183229 C56.1033755,157.578229 55.6773755,156.965229 55.2543755,156.353229 C57.7283755,152.736229 59.8893755,149.381229 61.7213755,146.301229 C60.7953755,154.759229 60.6353755,160.979229 60.6183755,163.714229 M129.527375,23.7482287 C129.371375,23.5222287 129.059375,23.4632287 128.832375,23.6182287 C92.2783755,48.6752287 75.6803755,85.8542287 68.1923755,112.632229 C67.3923755,115.496229 66.6853755,118.296229 66.0443755,121.033229 C63.8923755,120.251229 61.2833755,120.653229 59.8093755,121.000229 C61.5303755,118.127229 63.3533755,114.462229 64.2543755,110.651229 C64.2553755,110.646229 64.2533755,110.640229 64.2543755,110.635229 C66.4573755,104.206229 66.8743755,99.2112287 65.4723755,95.7302287 C64.4923755,93.2992287 62.6443755,91.6062287 59.9793755,90.6992287 C56.7563755,89.6032287 52.9423755,89.8482287 50.0243755,90.3322287 C48.6723755,78.9232287 50.7323755,73.0922287 53.2563755,70.1372287 C56.1473755,66.7522287 59.8173755,66.7832287 60.8033755,66.8572287 C61.5083755,70.5622287 62.3813755,74.2772287 63.3163755,76.2302287 C63.4023755,76.4102287 63.5813755,76.5142287 63.7683755,76.5142287 C63.8403755,76.5142287 63.9143755,76.4992287 63.9833755,76.4662287 C64.2323755,76.3462287 64.3373755,76.0482287 64.2183755,75.7992287 C62.0553755,71.2792287 60.1333755,56.2492287 60.1143755,56.0972287 C60.1133755,56.0892287 60.1073755,56.0832287 60.1063755,56.0742287 C59.3903755,47.4522287 60.7303755,41.9682287 64.1293755,39.7402287 C69.6293755,36.1342287 78.9153755,42.5102287 79.0093755,42.5752287 C79.2343755,42.7322287 79.5463755,42.6772287 79.7053755,42.4502287 C79.8623755,42.2242287 79.8073755,41.9122287 79.5803755,41.7552287 C79.1783755,41.4742287 69.6493755,34.9302287 63.5833755,38.9032287 C59.8713755,41.3352287 58.3843755,47.1392287 59.1243755,56.1962287 C59.1243755,56.2062287 59.1213755,56.2142287 59.1223755,56.2232287 C59.1243755,56.2472287 59.1313755,56.2972287 59.1393755,56.3592287 C59.3783755,59.2052287 59.8303755,62.3602287 60.5073755,65.8412287 C59.0143755,65.8022287 55.4033755,66.0972287 52.5113755,69.4702287 C48.6063755,74.0232287 48.0273755,81.8842287 49.0583755,90.5062287 C47.6113755,90.7872287 46.4703755,91.1012287 45.8773755,91.2782287 C45.7273755,90.1482287 45.5213755,88.9462287 45.2523755,87.6632287 C45.1953755,87.3922287 44.9283755,87.2162287 44.6603755,87.2762287 C44.3903755,87.3332287 44.2173755,87.5972287 44.2733755,87.8682287 C45.0453755,91.5482287 45.3203755,94.5732287 45.0903755,96.8632287 C45.0633755,97.1372287 45.2633755,97.3822287 45.5383755,97.4102287 C45.5553755,97.4122287 45.5723755,97.4132287 45.5883755,97.4132287 C45.8423755,97.4132287 46.0603755,97.2202287 46.0853755,96.9632287 C46.2193755,95.6312287 46.1863755,94.0622287 45.9983755,92.2892287 C47.3663755,91.8742287 54.4733755,89.8812287 59.6573755,91.6462287 C62.0343755,92.4552287 63.6783755,93.9552287 64.5443755,96.1032287 C66.5203755,101.008229 64.5963755,109.264229 58.8453755,120.635229 C56.9003755,123.858229 55.1163755,126.044229 55.0833755,126.084229 C54.9073755,126.297229 54.9373755,126.611229 55.1493755,126.788229 C55.2433755,126.864229 55.3563755,126.902229 55.4683755,126.902229 C55.6123755,126.902229 55.7553755,126.840229 55.8533755,126.720229 C55.9763755,126.573229 57.3793755,124.854229 59.0393755,122.250229 C59.5893755,122.075229 65.3483755,120.328229 67.5843755,123.319229 C69.8773755,126.387229 69.0843755,135.048229 52.2863755,158.880229 C52.1263755,159.105229 52.1813755,159.418229 52.4063755,159.576229 C52.4943755,159.638229 52.5943755,159.668229 52.6943755,159.668229 C52.8513755,159.668229 53.0063755,159.593229 53.1033755,159.456229 C53.6393755,158.695229 54.1383755,157.965229 54.6483755,157.227229 C55.0073755,157.745229 55.3663755,158.263229 55.7433755,158.775229 L60.1363755,164.746229 L48.8193755,164.746229 C50.9773755,116.888229 27.3543755,79.2732287 27.1143755,78.8972287 C26.9663755,78.6642287 26.6573755,78.5952287 26.4243755,78.7442287 C26.1913755,78.8932287 26.1233755,79.2022287 26.2713755,79.4342287 C26.5093755,79.8082287 49.9783755,117.194229 47.8193755,164.746229 L41.1813755,164.746229 L41.1813755,165.746229 L93.6263755,165.746229 L93.6263755,201.970229 L94.6263755,201.970229 L94.6263755,164.746229 L61.6183755,164.746229 C61.6023755,162.809229 61.6443755,155.144229 62.9733755,144.135229 C69.1103755,133.334229 70.9453755,126.143229 68.3843755,122.718229 C67.9843755,122.184229 67.5033755,121.773229 66.9733755,121.462229 C67.6243755,118.665229 68.3443755,115.801229 69.1643755,112.871229 C76.6083755,86.2632287 93.1023755,49.3232287 129.397375,24.4442287 C129.624375,24.2872287 129.683375,23.9762287 129.527375,23.7482287" id="Fill-30" fill="#000"/><path d="M112.830975,18.3099287 L112.825975,18.3099287 C112.677975,18.3079287 112.537975,18.2409287 112.443975,18.1269287 C112.381975,18.0499287 106.093975,10.4939287 98.8059755,10.7749287 C95.0049755,10.9369287 91.5629755,13.2259287 88.5749755,17.5789287 C88.4199755,17.8059287 88.1089755,17.8649287 87.8799755,17.7069287 C87.6519755,17.5509287 87.5949755,17.2399287 87.7509755,17.0119287 C90.9269755,12.3849287 94.6329755,9.95092872 98.7669755,9.77592872 C105.587975,9.48692872 111.321975,15.3569287 112.836975,17.0529287 C115.234975,14.4189287 128.427975,0.658928718 142.792975,0.0219287178 C149.248975,-0.256071282 155.108975,2.10992872 160.191975,7.07692872 C160.389975,7.26892872 160.393975,7.58592872 160.199975,7.78392872 C160.007975,7.98092872 159.689975,7.98492872 159.492975,7.79092872 C154.616975,3.02592872 149.012975,0.742928718 142.839975,1.02092872 C127.466975,1.70092872 113.351975,17.9709287 113.210975,18.1349287 C113.115975,18.2459287 112.976975,18.3099287 112.830975,18.3099287" id="Fill-13" fill="#000"/></g></g></g><g transform="translate(753.500000, 347.500000) scale(-1, 1) translate(-753.500000, -347.500000) translate(488.000000, -28.000000) scale(1 1)" id="Master/Character/Sitting on Chair"><defs><polygon id="mastercharactersitting-on-chair-path-1" points="0 0.0003 46.889 0.0003 46.889 52.9562 0 52.9562"/></defs><g id="Master/Character/Sitting on Chair" stroke="none" stroke-width="1" fill="none" fill-rule="evenodd"><g id="Lower Body/Sitting on Chair" transform="translate(71.000000, 393.000000) scale(1 1)"><g id="Lower Body/Sitting on Chair/Long Pants Blue" stroke="none" stroke-width="1" fill="none" fill-rule="evenodd"><g id="Group" transform="translate(136.000237, 172.000500)"><path d="M171.995463,183.4617 C165.998463,179.7867 138.348463,169.5077 137.720463,161.1367 C136.744463,148.1447 136.777463,127.3727 136.950463,112.4327 C128.895463,113.2817 119.621463,114.1667 109.759463,114.9307 L120.922463,161.3367 C121.462463,165.5237 122.189463,165.9247 117.637463,175.4227 C116.646463,177.4877 116.446463,179.1507 116.715463,180.4927 C106.534463,175.7087 88.8334635,167.8157 88.3324635,161.1367 C87.3564635,148.1447 87.3904635,127.3727 87.5624635,112.4327 C79.5074635,113.2817 70.2344635,114.1667 60.3714635,114.9307 L71.5344635,161.3367 C72.0744635,165.5237 72.8014635,165.9247 68.2494635,175.4227 C63.9354635,184.4197 74.4884635,185.8437 74.4884635,185.8437 L121.891463,185.962706 C122.237463,185.9637 122.549463,185.8297 122.788463,185.6167 C123.441463,185.7837 123.875463,185.8437 123.875463,185.8437 L171.278463,185.962706 C172.026463,185.9647 172.632463,185.3587 172.632463,184.6117 C172.632463,184.1417 172.396463,183.7067 171.995463,183.4617" id="Skin" fill="#f4d4b8"/><path d="M171.995463,183.4617 C170.256463,182.3967 153.927463,173.7117 149.204463,172.0627 C145.635463,179.7677 122.364463,176.1377 120.171463,169.7407 C120.142463,169.8117 117.416463,175.3697 117.388463,175.4407 C116.625463,177.3807 116.470463,178.9597 116.692463,180.2497 C111.001463,177.2507 102.913463,173.1447 99.8174635,172.0627 C96.2474635,179.7677 72.9764635,176.1377 70.7834635,169.7407 C70.7554635,169.8117 68.0284635,175.3697 68.0004635,175.4407 C64.3504635,184.7277 74.4884635,185.8437 74.4884635,185.8437 L121.891463,185.962706 C122.227463,185.9637 122.532463,185.8367 122.769463,185.6337 C123.432463,185.7937 123.875463,185.8437 123.875463,185.8437 L171.279463,185.962706 C172.026463,185.9647 172.632463,185.3587 172.632463,184.6117 C172.632463,184.1417 172.396463,183.7067 171.995463,183.4617" id="Shoes" fill="#83BB9E"/><path d="M125.389783,162.106314 L141.36312,160.57927 C143.10512,160.31527 144.29312,158.67527 143.99912,156.93627 L135.628463,41.5715 C134.075463,30.1775 124.243463,21.6165 112.606463,21.8305 L96.2224635,22.1345 L94.3504635,0.4995 L6.65046348,0.4995 C6.65046348,0.4995 -3.29353652,37.0775 1.13746348,49.8745 C5.12746348,61.4015 13.5404635,69.4065 51.7264635,66.2475 L66.4175326,158.956314 C66.4145326,160.781314 67.9575326,162.227314 69.7795326,162.106314 L91.8164635,160.57927 C93.6434635,160.45727 94.9814635,158.81027 94.7284635,156.99727 L91.8164635,64.0445 L96.9244635,64.2575 L116.316084,160.52827 C116.518084,162.30427 118.153084,163.55727 119.920084,163.28927" id="Pants" fill="#53627B"/><path d="M94.7304635,53.759 L100.071214,82.8 C100.104214,83.052 100.814214,85.7823348 101.062214,85.7823348 C101.083214,85.7823348 100.609214,83.235 100.631214,83.232 C100.905214,83.196 101.098214,82.945 101.062214,82.671 L95.7224635,53.63 C95.6864635,53.356 95.4324635,53.157 95.1614635,53.198 C94.8874635,53.234 94.6944635,53.485 94.7304635,53.759 Z M122.869463,183.035 C121.104463,181.955 104.807463,173.275 99.9824635,171.591 C99.9594635,171.583 99.9364635,171.586 99.9134635,171.581 C99.8784635,171.574 99.8444635,171.565 99.8094635,171.566 C99.7764635,171.566 99.7464635,171.575 99.7144635,171.582 C99.6834635,171.588 99.6544635,171.593 99.6244635,171.605 C99.5944635,171.618 99.5684635,171.637 99.5404635,171.656 C99.5154635,171.674 99.4894635,171.689 99.4674635,171.712 C99.4434635,171.735 99.4264635,171.764 99.4074635,171.793 C99.3934635,171.814 99.3744635,171.829 99.3634635,171.852 C98.0444635,174.701 93.4214635,176.198 86.9984635,175.872 C79.3724635,175.477 72.3104635,172.654 71.2564635,169.579 C71.1894635,169.386 71.0124635,169.255 70.8074635,169.244 C70.5944635,169.248 70.4134635,169.35 70.3274635,169.537 C70.2824635,169.634 69.6384635,170.95 68.9814635,172.291 C67.6224635,175.07 67.5524635,175.216 67.5354635,175.257 C67.4354635,175.509 67.5564635,175.792 67.8054635,175.898 C68.0544635,176.006 68.3434635,175.891 68.4574635,175.644 C68.5044635,175.542 69.1984635,174.124 69.8804635,172.731 C70.3014635,171.87 70.5924635,171.276 70.7924635,170.866 C73.0214635,174.236 80.4204635,176.533 86.9464635,176.871 C87.5384635,176.901 88.1164635,176.917 88.6804635,176.917 C94.3454635,176.917 98.4874635,175.38 100.051463,172.68 C105.088463,174.592 120.524463,182.772 122.347463,183.888 C122.596463,184.041 122.744463,184.311 122.744463,184.612 C122.744463,184.888 122.968463,185.112 123.244463,185.112 C123.521463,185.112 123.744463,184.888 123.744463,184.612 C123.744463,183.96 123.417463,183.371 122.869463,183.035 L122.869463,183.035 Z M90.8114635,64.078 C90.8114635,64.08 90.8124635,64.082 90.8124635,64.083 L93.2942131,104.490448 C93.3162131,104.751448 93.5782131,105.835665 93.8352131,105.835665 C93.8492131,105.835665 94.2772131,105.835665 94.2912131,105.835665 C94.5662131,105.81222 94.3142131,104.680448 94.2912131,104.404448 L91.8064635,63.981 C91.8064635,63.979 91.8054635,63.978 91.8054635,63.976 C91.8044635,63.974 91.8054635,63.972 91.8054635,63.969 L88.9314635,37.684 C87.8654635,27.943 79.6754635,20.405 69.8814635,20.148 L37.2644635,19.295 C37.0354635,19.302 36.7584635,19.506 36.7501132,19.781 C36.7444635,20.057 36.9614635,20.287 37.2374635,20.295 L69.8544635,21.148 C79.1514635,21.391 86.9254635,28.547 87.9364635,37.793 L90.8114635,64.078 Z M95.6644635,21.479 L85.7364635,21.637 C85.4594635,21.641 85.2394635,21.869 85.2444635,22.145 C85.2484635,22.419 85.4714635,22.637 85.7444635,22.637 L85.7514635,22.637 L95.8724635,22.476 C95.9704635,22.577 96.1014635,22.642 96.2324635,22.635 L112.615463,22.332 C112.756463,22.329 112.894463,22.328 113.034463,22.328 C124.656463,22.328 134.396463,31.304 135.298463,42.938 C135.319463,43.2 135.537463,43.399 135.796463,43.399 C135.809463,43.399 135.822463,43.399 135.835463,43.398 C136.111463,43.377 136.317463,43.136 136.295463,42.861 C135.341463,30.559 124.926463,21.098 112.597463,21.332 L101.302463,21.541 C101.204463,21.447 101.077463,21.39 100.957463,21.395 L96.6664635,21.464 L94.8494635,0.457 C94.8264635,0.198 94.6104635,4.26325641e-14 94.3504635,4.26325641e-14 L6.64946348,4.26325641e-14 C6.37346348,4.26325641e-14 6.14946348,0.223 6.14946348,0.5 C6.14946348,0.776 6.37346348,1 6.64946348,1 L93.8924635,1 L95.6644635,21.479 Z M149.415463,171.608 C149.166463,171.492 148.867463,171.601 148.751463,171.852 C147.431463,174.701 142.808463,176.198 136.386463,175.872 C128.760463,175.477 121.698463,172.654 120.643463,169.579 C120.577463,169.386 120.399463,169.255 120.195463,169.244 C119.981463,169.248 119.801463,169.35 119.715463,169.537 C119.670463,169.634 119.025463,170.95 118.369463,172.291 C117.010463,175.07 116.939463,175.216 116.923463,175.257 C116.823463,175.509 116.943463,175.792 117.192463,175.898 C117.441463,176.006 117.730463,175.891 117.845463,175.644 C117.891463,175.542 118.586463,174.124 119.267463,172.731 C119.688463,171.87 119.979463,171.276 120.180463,170.866 C122.409463,174.236 129.807463,176.533 136.334463,176.871 C136.926463,176.901 137.504463,176.917 138.067463,176.917 C144.015463,176.917 148.290463,175.226 149.659463,172.272 C149.774463,172.022 149.666463,171.724 149.415463,171.608 L149.415463,171.608 Z M128.452463,164.623 C128.515463,164.353 128.348463,164.085 128.079463,164.021 C127.803463,163.961 127.541463,164.126 127.477463,164.394 L127.097463,166.023 C126.627463,168.039 127.219463,170.114 128.681463,171.576 C128.779463,171.674 128.907463,171.722 129.035463,171.722 C129.163463,171.722 129.291463,171.674 129.389463,171.576 C129.584463,171.381 129.584463,171.064 129.389463,170.869 C128.172463,169.653 127.680463,167.927 128.071463,166.251 L128.452463,164.623 Z M79.0644635,164.623 C79.1274635,164.353 78.9604635,164.085 78.6914635,164.021 C78.4154635,163.961 78.1534635,164.126 78.0904635,164.394 L77.7094635,166.023 C77.2394635,168.039 77.8314635,170.114 79.2944635,171.576 C79.3914635,171.674 79.5194635,171.722 79.6474635,171.722 C79.7754635,171.722 79.9034635,171.674 80.0014635,171.576 C80.1964635,171.381 80.1964635,171.064 80.0014635,170.869 C78.7844635,169.653 78.2924635,167.927 78.6834635,166.251 L79.0644635,164.623 Z" id="Fill-9" fill="#000"/></g></g></g><g id="Upper Body" transform="translate(8.000000, 265.000000) scale(1 1)"><g id="Upper Body/Working" stroke="none" stroke-width="1" fill="none" fill-rule="evenodd"><path d="M309.7378,252.8214 C308.6218,256.0324 300.0308,257.0394 293.4438,257.3364 C293.9308,241.0084 294.5558,225.9074 294.5558,225.9074 C294.5558,225.9074 311.5788,247.5314 309.7378,252.8214 M198.2368,241.5414 C203.6998,234.0044 212.6638,228.2084 212.6638,228.2084 C212.6638,228.2084 211.9008,235.3924 210.7778,245.0494 C203.5618,245.9244 194.8878,246.1614 198.2368,241.5414 M262.3508,184.2714 L251.3088,207.5054 L237.2768,184.7314 C237.2768,184.7314 229.8218,186.0084 219.6578,190.3464 L216.2998,191.8504 C203.0168,198.0834 186.3378,209.3414 175.3448,229.0614 C154.4878,266.4794 182.2178,277.9274 206.5728,277.8094 C206.0588,281.2844 205.5528,284.4534 205.0718,287.0964 C201.8518,304.8094 205.0718,305.5004 205.0718,305.5004 L292.9458,305.5004 C292.9458,305.5004 299.9722,306.397312 298.8222,297.195312 C298.5632,295.122312 298.7792,293.1504 298.8222,287.0964 C338.789062,291.005859 334.2758,259.1564 334.2758,259.1564 C325.5428,184.2714 262.3508,184.2714 262.3508,184.2714 Z" id="Sweater" fill="#94B1EB"/><polygon id="Laptop" fill="#F1EFEF" points="295.9927 215.0607 282.0797 252.2737 282.0207 252.2587 243.4967 252.2587 243.4967 253.2587 279.3647 259.5367 334.0617 259.5367 354.1477 215.0607"/><path d="M299.4468,259.5363 L278.9688,259.5363 L253.9818,255.1633 C262.2028,265.1363 276.6118,262.4843 276.6118,262.4843 C284.3618,268.7093 291.7418,274.2273 298.2168,278.0773 C298.6418,267.4183 299.5398,262.8073 299.4468,259.5363 L299.4468,259.5363 Z M275.9208,251.8843 C276.7008,251.9283 277.0218,250.9053 276.3588,250.4923 C274.3818,249.2623 271.2918,247.4883 267.6068,245.8423 C269.9868,245.8443 271.4088,245.6063 270.2888,244.8863 C265.6968,241.9293 251.0988,241.5413 251.0988,241.5413 C251.0658,241.5513 251.0408,241.5603 251.0088,241.5703 C250.0518,241.5433 249.0968,241.5463 248.1508,241.6213 C233.7388,242.7753 218.7178,247.9923 218.7178,247.9923 L217.7858,267.6603 C217.7858,267.6603 243.5718,253.5813 249.8138,252.0543 C254.6988,250.8573 269.6488,251.5333 275.9208,251.8843 L275.9208,251.8843 Z M262.3508,184.2713 L257.350561,182.2013 L257.350561,172.9993 L243.549561,172.9993 L243.549561,182.6613 L237.2768,184.7313 L251.3088,207.5053 L262.3508,184.2713 Z" id="Skin" fill="#f4d4b8"/><path d="M294.6851,287.8634 C294.5541,287.8634 294.4221,287.8494 294.2891,287.8234 C293.7061,287.7094 293.2561,287.3954 292.9531,286.8934 C291.8441,285.0614 293.0251,281.0724 293.9731,277.8664 C294.1291,277.3404 294.2751,276.8484 294.3941,276.4144 C294.4671,276.1474 294.7451,275.9934 295.0091,276.0644 C295.2761,276.1384 295.4321,276.4144 295.3591,276.6794 C295.2371,277.1204 295.0901,277.6174 294.9321,278.1504 C294.1341,280.8464 292.9281,284.9224 293.8081,286.3764 C293.9641,286.6344 294.1791,286.7824 294.4821,286.8424 C294.7971,286.9014 295.0791,286.8234 295.3711,286.5864 C297.6491,284.7334 299.0991,274.7884 299.2501,259.9824 C299.2531,259.7084 299.4771,259.4874 299.7501,259.4874 L299.7551,259.4874 C300.0321,259.4904 300.2531,259.7164 300.25013,259.9924 C300.1591,268.9984 299.4841,284.5294 296.0011,287.3624 C295.5911,287.6954 295.1501,287.8634 294.6851,287.8634" id="Fill-9" fill="#000"/><path d="M299.2779,287.8341 C298.1339,287.8341 296.9589,287.8181 295.7519,287.7871 C295.4749,287.7791 295.2569,287.5501 295.263736,287.2741 C295.2719,286.9991 295.5159,286.7791 295.7769,286.7871 C306.6269,287.0711 314.8199,286.0821 320.1729,283.8541 C320.4279,283.7521 320.7199,283.8681 320.8269,284.1231 C320.9319,284.3781 320.8119,284.6711 320.5569,284.7771 C315.6749,286.8091 308.5279,287.8341 299.2779,287.8341" id="Fill-11" fill="#000"/><path d="M280.9185,258.6349 C280.8915,258.6349 280.8625,258.6329 280.8355,258.6279 L246.6335,252.8529 C246.3605,252.8069 246.1775,252.5489 246.2235,252.2769 C246.2695,252.0039 246.5375,251.8229 246.7995,251.8659 L280.5895,257.5729 L296.0345,214.5349 C296.1065,214.3369 296.2945,214.2039 296.5055,214.2039 L354.6605,214.2039 C354.8305,214.2039 354.9885,214.2899 355.0805,214.4329 C355.1725,214.5749 355.1865,214.7549 355.1165,214.9099 L339.8015,248.8239 C339.6875,249.0759 339.3915,249.1869 339.1395,249.0739 C338.8885,248.9599 338.7755,248.6639 338.8895,248.4119 L353.8865,215.2039 L296.8565,215.2039 L281.3895,258.3039 C281.3165,258.5049 281.1265,258.6349 280.9185,258.6349" id="Fill-13" fill="#000"/><path d="M237.2368,257.8361 C237.0728,257.8361 236.9108,257.7551 236.8158,257.6061 C236.6668,257.3731 236.7348,257.0641 236.9668,256.9151 C241.6468,253.9221 249.3488,251.6681 249.6748,251.5731 C254.6538,250.3561 269.7068,251.0361 275.9488,251.3851 C276.1248,251.3931 276.1828,251.2791 276.2038,251.2101 C276.2218,251.1531 276.2468,251.0121 276.0938,250.9171 C271.3698,247.9791 259.1948,241.2471 248.1908,242.1201 C248.0638,242.1331 234.4678,243.5121 225.6658,246.3191 C225.3988,246.4011 225.1208,246.2571 225.0368,245.9951 C224.9528,245.7321 225.0978,245.4501 225.3608,245.3661 C234.2648,242.5261 247.9648,241.1391 248.1008,241.1251 C259.4268,240.2181 271.8138,247.0771 276.6228,250.0671 C277.1188,250.3761 277.3328,250.9561 277.1568,251.5121 C276.9818,252.0661 276.4608,252.4251 275.8918,252.3831 C269.6938,252.0371 254.7578,251.3581 249.9328,252.5391 C249.8748,252.5571 242.0628,254.8431 237.5068,257.7571 C237.4228,257.8111 237.3298,257.8361 237.2368,257.8361" id="Fill-15" fill="#000"/><path d="M273.6284,252.0822 C273.5004,252.0822 273.3724,252.0332 273.2744,251.9362 C267.0384,245.7022 256.7364,245.6232 256.6334,245.6232 C256.3574,245.6232 256.1334,245.3992 256.1334,245.1232 C256.1334,244.8472 256.3574,244.6232 256.6334,244.6232 C257.0714,244.6232 267.4474,244.6972 273.9824,251.2282 C274.1774,251.4242 274.1774,251.7402 273.9824,251.9362 C273.8844,252.0332 273.7564,252.0822 273.6284,252.0822" id="Fill-17" fill="#000"/><path d="M269.5611,252.0822 C269.3741,252.0822 269.1951,251.9772 269.1091,251.7962 C267.6761,248.7742 259.3251,248.3882 256.2291,248.5042 C255.9631,248.5062 255.7221,248.2972 255.7111,248.0212 C255.7021,247.7452 255.9171,247.5142 256.1941,247.5042 C256.6761,247.4912 268.0061,247.1362 270.0131,251.3682 C270.1311,251.6172 270.0251,251.9152 269.7751,252.0342 C269.7071,252.0662 269.6331,252.0822 269.5611,252.0822" id="Fill-19" fill="#000"/><path d="M267.6504,246.3431 C267.3274,246.3361 267.1194,246.1281 267.1194,245.8431 C267.1194,245.5661 267.3434,245.3431 267.6194,245.3431 L267.6474,245.3431 C268.8494,245.3431 269.5104,245.2771 269.8694,245.2141 C265.2834,242.4491 251.2294,242.0451 251.0854,242.0411 C250.8104,242.0331 250.5924,241.8041 250.599236,241.5271 C250.6074,241.2561 250.8284,241.0411 251.0994,241.0411 L251.1124,241.0411 C251.7144,241.0581 265.9034,241.4671 270.5594,244.4661 C271.0614,244.7891 271.2604,245.1411 271.1504,245.5131 C270.9964,246.0381 270.3724,246.3431 267.6504,246.3431 L267.6504,246.3431 Z" id="Fill-21" fill="#000"/><path d="M210.7788,245.549 C210.7628,245.549 210.7488,245.548 210.7338,245.547 C210.4588,245.523 210.2558,245.28 210.2798,245.005 C212.1458,223.895 213.3678,217.834 213.3808,217.776 C213.4348,217.504 213.7038,217.324 213.9698,217.387 C214.2408,217.443 214.4148,217.706 214.3588,217.977 C214.3468,218.035 213.1348,224.07 211.2758,245.093 C211.2528,245.353 211.0348,245.549 210.7788,245.549" id="Fill-23" fill="#000"/><path d="M220.8765,277.1867 C220.6475,277.1867 220.4245,277.1407 220.2075,277.0467 C215.7955,275.1547 217.5815,251.0167 217.9825,246.2157 L206.3075,246.3427 C194.0445,246.4947 186.5905,242.1567 186.2765,241.9717 C186.0395,241.8327 185.9605,241.5267 186.1005,241.2887 C186.2385,241.0487 186.5465,240.9707 186.7835,241.1097 C186.8575,241.1547 194.4095,245.4817 206.2955,245.3427 L218.5225,245.2097 C218.6715,245.2227 218.7995,245.2667 218.8955,245.3707 C218.9905,245.4737 219.0385,245.6137 219.0255,245.7537 C218.0545,256.8197 217.6225,274.8507 220.6025,276.1277 C221.2015,276.3907 222.0085,275.6777 222.5745,275.0347 C224.2705,273.1147 225.0635,269.4957 224.9355,264.2787 C224.9285,264.0017 225.1475,263.7727 225.4225,263.7657 L225.4355,263.7657 C225.7055,263.7657 225.9285,263.9817 225.9355,264.2527 C226.0695,269.7307 225.1915,273.5807 223.3245,275.6967 C222.4495,276.6877 221.6295,277.1867 220.8765,277.1867" id="Fill-25" fill="#000"/><path d="M207.5181,278.0636 C199.2581,278.0636 192.8911,276.9076 188.5181,275.7126 C181.4761,273.7886 178.0051,271.4086 177.8621,271.3076 C177.6351,271.1506 177.5791,270.8386 177.7371,270.6126 C177.8931,270.3866 178.2061,270.3316 178.4321,270.4866 C178.5701,270.5826 192.4941,279.9596 220.5441,276.1546 C220.8071,276.1046 221.0691,276.3076 221.1071,276.5826 C221.1441,276.8556 220.9531,277.1076 220.6791,277.1446 C215.8661,277.7986 211.4741,278.0636 207.5181,278.0636" id="Fill-27" fill="#000"/><path d="M272.3277,263.2902 C267.7267,263.2902 260.4197,262.3302 255.0207,257.0472 C254.8237,256.8532 254.8197,256.5372 255.0137,256.3402 C255.2057,256.1422 255.5217,256.1402 255.7207,256.3322 C263.7847,264.2242 276.3967,262.0182 276.5207,261.9922 C276.8037,261.9452 277.0537,262.1232 277.1027,262.3942 C277.1537,262.6652 276.9737,262.9262 276.7027,262.9762 C276.6547,262.9842 274.9207,263.2902 272.3277,263.2902" id="Fill-29" fill="#000"/><path d="M251.3091,208.005 C251.1361,208.005 250.9751,207.915 250.8831,207.768 L236.8511,184.994 C236.7061,184.759 236.7801,184.45 237.0141,184.306 C237.2491,184.163 237.5571,184.233 237.7031,184.469 L251.2521,206.46 L261.9001,184.057 C262.0181,183.807 262.3181,183.701 262.5661,183.82 C262.8151,183.939 262.9211,184.236 262.8021,184.486 L251.7601,207.72 C251.6821,207.885 251.5191,207.994 251.3361,208.004 C251.3271,208.005 251.3181,208.005 251.3091,208.005" id="Fill-31" fill="#000"/></g></g><g id="Hair" transform="translate(104.000000, 285.000000) scale(1 1)"><g id="Hair/Short Straight" stroke="none" stroke-width="1" fill="none" fill-rule="evenodd"><g id="Head" transform="translate(132.000000, 111.000000)"><path d="M44.1789,24.3663 C44.5879,35.6913 33.3599,45.0883 22.4569,45.0883 C11.5539,45.0883 0.4939,36.9643 0.0189,25.3903 C-0.4461,14.0673 7.7449,1.3583 15.9329,0.2613 C32.6079,-1.9747 43.6789,10.5083 44.1789,24.3663" id="Fill-1" fill="#000"/><path d="M22.4567,44.088 C12.4757,44.088 1.4787,36.559 1.0177,25.35 C0.5797,14.678 8.3147,2.291 16.0657,1.252 C17.3127,1.085 18.5577,1 19.7657,1 C34.4247,1 42.7697,13.058 43.1797,24.402 C43.3447,28.984 41.4627,33.553 37.8807,37.268 C33.7607,41.538 27.9947,44.088 22.4567,44.088" id="Fill-4" fill="#f4d4b8"/></g><path d="M139.0599,136.5613 C139.0599,136.5613 138.3559,133.0433 136.5269,134.4503 C134.6979,135.8573 134.8429,141.9283 137.7929,146.1293 C137.7929,146.1293 136.2459,149.9283 130.3349,146.1293 C124.6029,142.4433 122.0469,118.7613 138.9869,108.4853 C139.9899,107.8763 141.1169,107.5013 142.2839,107.3803 C146.5809,106.9353 158.3259,106.0523 167.9049,108.4193 L170.4379,112.3593 L171.1059,109.0183 C171.2879,108.1083 172.1099,107.4713 173.0359,107.5203 L176.6719,107.7153 C178.2439,107.7993 179.4939,109.0533 179.5719,110.6243 C179.8019,115.2513 179.2269,124.1653 171.5639,125.3043 C164.4239,126.3653 156.0929,124.5163 151.5619,123.2483 C150.0169,122.8163 148.5259,122.2373 147.0509,121.6063 C144.9839,120.7223 140.9119,119.9553 141.4029,127.9703 C141.9179,136.4013 142.0149,137.1233 142.0149,137.1233 C142.0149,137.1233 139.2009,138.9533 139.0599,136.5613" id="Hair" fill="#372310"/><path d="M180.3328,110.308 C180.2388,108.45 178.7688,106.974 176.9088,106.874 L173.2718,106.679 C172.0498,106.615 171.0048,107.45 170.7698,108.621 L170.3718,110.62 L168.5788,107.831 C168.5008,107.712 168.3818,107.627 168.2448,107.593 C158.6548,105.225 147.0008,106.068 142.4348,106.541 C141.1898,106.67 139.9698,107.079 138.9068,107.723 C138.6468,107.882 138.5628,108.222 138.7218,108.483 C138.8798,108.745 139.2198,108.828 139.4808,108.669 C140.4048,108.109 141.4658,107.754 142.5478,107.642 C147.0218,107.178 158.3858,106.351 167.7668,108.616 L170.1808,112.37 C170.3038,112.559 170.5278,112.653 170.7488,112.614 C170.9698,112.572 171.1438,112.4 171.1878,112.179 L171.8558,108.837 C171.9828,108.203 172.5478,107.746 173.2138,107.784 L176.8508,107.979 C178.1408,108.048 179.1628,109.073 179.2278,110.363 C179.4678,115.177 178.8058,123.41 171.6898,124.468 C164.6038,125.522 156.2608,123.641 151.9188,122.427 C151.6218,122.341 151.3188,122.516 151.2368,122.81 C151.1548,123.104 151.3268,123.41 151.6198,123.492 C155.1318,124.475 161.2158,125.883 167.2198,125.883 C168.7838,125.883 170.3448,125.787 171.8528,125.563 C172.6898,125.438 173.4278,125.205 174.1108,124.919 C174.1128,124.923 174.1138,124.927 174.1158,124.931 C174.5608,124.658 174.6948,124.579 175.3938,124.231 C180.2218,121.122 180.5048,113.775 180.3328,110.308 M141.5768,127.128 C141.2718,127.147 141.0398,127.409 141.0578,127.714 C141.4228,133.687 141.5788,135.803 141.6398,136.536 C141.1158,136.815 140.4068,137.064 140.0828,136.899 C139.8918,136.803 139.8348,136.487 139.8118,136.163 C139.7628,135.926 139.3118,133.834 138.0708,133.37 C137.6978,133.23 137.1058,133.177 136.3968,133.723 C134.3348,135.31 134.4718,141.538 137.3738,145.903 L137.0888,146.575 C137.0778,146.6 137.0798,146.627 137.0728,146.654 C137.0628,146.691 137.0528,146.727 137.0508,146.766 C137.0488,146.801 137.0558,146.835 137.0608,146.87 C137.0658,146.905 137.0688,146.94 137.0808,146.974 C137.0938,147.01 137.1148,147.041 137.1348,147.074 C137.1488,147.097 137.1548,147.123 137.1728,147.145 C137.2698,147.261 137.3718,147.37 137.4708,147.483 C137.6268,147.483 138.2578,146.702 138.2438,146.686 L138.5108,146.056 C138.5848,145.88 138.5628,145.679 138.4538,145.522 C135.6358,141.509 135.5358,135.781 137.0728,134.6 C137.4418,134.315 137.6238,134.384 137.6828,134.406 C138.1568,134.583 138.5848,135.689 138.7158,136.305 C138.7718,137.279 139.2198,137.703 139.5848,137.888 C140.6728,138.436 142.2258,137.494 142.5238,137.299 C142.7018,137.184 142.7978,136.975 142.7718,136.766 C142.7688,136.731 142.6628,135.821 142.1628,127.647 C142.1438,127.341 141.8678,127.097 141.5768,127.128" id="Fill-1" fill="#000"/></g></g><g id="Expression" transform="translate(201.000000, 388.000000) scale(1 1)"><g id="Expression/Happy" stroke="none" stroke-width="1" fill="none" fill-rule="evenodd"><path d="M65.5638,42.4847 C65.7318,42.7047 65.6888,43.0187 65.4678,43.1857 C63.3578,44.7897 61.4758,45.3127 59.9198,45.3127 C57.0168,45.3127 55.2448,43.4917 55.2178,43.4637 C55.0288,43.2627 55.0378,42.9477 55.2368,42.7577 C55.4378,42.5677 55.7538,42.5767 55.9438,42.7747 C56.0888,42.9257 59.5458,46.4277 64.8638,42.3897 C65.0828,42.2217 65.3978,42.2647 65.5638,42.4847 Z M61.1759,29.2677 C61.5959,29.7817 65.2429,34.3587 64.0529,36.8667 C63.5839,37.8557 62.4859,38.3567 60.7889,38.3567 C59.0919,38.3567 57.9939,37.8557 57.5249,36.8677 C56.3349,34.3597 59.9819,29.7817 60.4019,29.2677 C60.5909,29.0357 60.9859,29.0357 61.1759,29.2677 Z M60.7889,30.3977 C59.6359,31.9377 57.7339,34.9747 58.4289,36.4387 C58.7179,37.0477 59.5119,37.3567 60.7889,37.3567 C62.0659,37.3567 62.8599,37.0477 63.1489,36.4387 C63.8449,34.9747 61.9419,31.9377 60.7889,30.3977 Z M53.8972,27.8363 C54.5552,27.8363 55.0892,28.6193 55.0892,29.5843 C55.0892,30.5493 54.5552,31.3323 53.8972,31.3323 C53.2392,31.3323 52.7062,30.5493 52.7062,29.5843 C52.7062,28.6193 53.2392,27.8363 53.8972,27.8363 Z M67.769,27.8363 C68.428,27.8363 68.961,28.6193 68.961,29.5843 C68.961,30.5493 68.428,31.3323 67.769,31.3323 C67.112,31.3323 66.578,30.5493 66.578,29.5843 C66.578,28.6193 67.112,27.8363 67.769,27.8363 Z M55.0896,23.9998 C55.3656,23.9998 55.5896,24.2238 55.5896,24.4998 C55.5896,24.7758 55.3656,24.9998 55.0896,24.9998 C52.5666,24.9998 51.0876,26.4288 51.0726,26.4438 C50.9746,26.5398 50.8476,26.5878 50.7206,26.5878 C50.5916,26.5878 50.4636,26.5388 50.3666,26.4408 C50.1716,26.2448 50.1716,25.9298 50.3666,25.7348 C50.4376,25.6648 52.1356,23.9998 55.0896,23.9998 Z M66.5776,23.9998 C69.5316,23.9998 71.2296,25.6648 71.3006,25.7348 C71.4956,25.9298 71.4956,26.2448 71.3006,26.4408 C71.2036,26.5388 71.0746,26.5878 70.9466,26.5878 C70.8196,26.5878 70.6926,26.5398 70.5946,26.4438 C70.5806,26.4288 69.1006,24.9998 66.5776,24.9998 C66.3016,24.9998 66.0776,24.7758 66.0776,24.4998 C66.0776,24.2238 66.3016,23.9998 66.5776,23.9998 Z" id="Combined-Shape" fill="#000"/><path d="M51.4996066,33 C53.4327301,33 55,33.8954741 55,35 C55,36.1045259 53.4327301,37 51.4996066,37 C49.5664831,37 48,36.1045259 48,35 C48,33.8954741 49.5664831,33 51.4996066,33 Z M69.5,33 C71.4329063,33 73,33.8954741 73,35 C73,36.1045259 71.4329063,37 69.5,37 C67.5670937,37 66,36.1045259 66,35 C66,33.8954741 67.5670937,33 69.5,33 Z" id="Cheeks" fill="#E2A2B5"/></g></g><g id="Facial Hair" transform="translate(201.000000, 387.000000) scale(1 1)" fill="#000"><g id="Facial Hair/None" stroke="none" stroke-width="1" fill="none" fill-rule="evenodd" fill-opacity="0"/></g><g id="Accesories" transform="translate(104.500000, 286.000000) scale(1 1)"><g id="Accesories/Simple Glases" stroke="none" stroke-width="1" fill="none" fill-rule="evenodd"><path d="M153.6922,129 C154.5482,129 155.3622,129.369 155.9252,130.013 C156.4882,130.657 156.7462,131.513 156.6332,132.361 L156.547997,132.998134 C156.879673,132.976172 157.215343,132.9622 157.558,132.9622 C158.066,132.9622 158.558,132.9922 159.04,133.0402 L159.038766,133.04 L158.9677,132.231 C158.8947,131.403 159.1737,130.577 159.7347,129.964 C160.2957,129.352 161.0927,129 161.9237,129 L169.6487,129 C170.5047,129 171.3187,129.369 171.8817,130.013 C172.4447,130.657 172.7027,131.513 172.5897,132.361 L171.8617,137.792 C171.6827,139.129 170.6237,140.178 169.2837,140.342 L166.1967,140.721 C166.0767,140.736 165.9567,140.744 165.8357,140.744 C165.7237,140.744 165.6117,140.737 165.5017,140.725 L162.0737,140.337 C160.6737,140.179 159.5777,139.057 159.4517,137.653 L159.130009,134.055083 C158.620319,133.995157 158.094652,133.9622 157.558,133.9622 C157.168,133.9622 156.787,133.9842 156.411,134.0162 L156.411,134.0162 L155.9052,137.792 C155.7262,139.129 154.6672,140.178 153.3272,140.342 L150.2402,140.721 C150.1202,140.736 150.0002,140.744 149.8792,140.744 C149.7672,140.744 149.6552,140.737 149.5452,140.725 L146.1172,140.337 C144.7172,140.179 143.6212,139.057 143.4952,137.653 L143.0112,132.231 C142.9382,131.403 143.2172,130.577 143.7782,129.964 C144.3392,129.352 145.1362,129 145.9672,129 L153.6922,129 Z M153.6922,130 L145.9672,130 C145.4082,130 144.8932,130.227 144.5162,130.639 C144.1382,131.052 143.9582,131.585 144.0082,132.142 L144.4912,137.564 C144.5742,138.495 145.3012,139.239 146.2302,139.344 L148.2162,139.568 L151.5602,139.552 L151.5602,139.552 L153.2052,139.35 C154.0932,139.241 154.7962,138.546 154.9142,137.659 L155.6412,132.228 C155.7172,131.666 155.5462,131.099 155.1722,130.671 C154.7992,130.245 154.2592,130 153.6922,130 Z M169.6487,130 L161.9237,130 C161.3647,130 160.8497,130.227 160.4727,130.639 C160.0947,131.052 159.9147,131.585 159.9647,132.142 L160.4477,137.564 C160.5307,138.495 161.2577,139.239 162.1867,139.344 L164.1747,139.568 L167.5147,139.552 L167.5147,139.552 L169.1617,139.35 C170.0497,139.241 170.7527,138.546 170.8707,137.659 L171.5977,132.228 C171.6737,131.666 171.5027,131.099 171.1287,130.671 C170.7557,130.245 170.2157,130 169.6487,130 Z" id="Combined-Shape" fill="#000"/></g></g></g></g><g transform="translate(121.000000, -27.000000) scale(1 1)" id="Master/Character/Sitting on Chair"><defs><polygon id="mastercharactersitting-on-chair-path-1" points="0 0.0003 46.889 0.0003 46.889 52.9562 0 52.9562"/></defs><g id="Master/Character/Sitting on Chair" stroke="none" stroke-width="1" fill="none" fill-rule="evenodd"><g id="Lower Body/Sitting on Chair" transform="translate(71.000000, 393.000000) scale(1 1)"><g id="Lower Body/Sitting on Chair/Pink Shoes" stroke="none" stroke-width="1" fill="none" fill-rule="evenodd"><g id="Group" transform="translate(136.000237, 172.000500)"><path d="M171.995463,183.4617 C165.998463,179.7867 138.348463,169.5077 137.720463,161.1367 C136.744463,148.1447 136.777463,127.3727 136.950463,112.4327 C128.895463,113.2817 119.621463,114.1667 109.759463,114.9307 L120.922463,161.3367 C121.462463,165.5237 122.189463,165.9247 117.637463,175.4227 C116.646463,177.4877 116.446463,179.1507 116.715463,180.4927 C106.534463,175.7087 88.8334635,167.8157 88.3324635,161.1367 C87.3564635,148.1447 87.3904635,127.3727 87.5624635,112.4327 C79.5074635,113.2817 70.2344635,114.1667 60.3714635,114.9307 L71.5344635,161.3367 C72.0744635,165.5237 72.8014635,165.9247 68.2494635,175.4227 C63.9354635,184.4197 74.4884635,185.8437 74.4884635,185.8437 L121.891463,185.962706 C122.237463,185.9637 122.549463,185.8297 122.788463,185.6167 C123.441463,185.7837 123.875463,185.8437 123.875463,185.8437 L171.278463,185.962706 C172.026463,185.9647 172.632463,185.3587 172.632463,184.6117 C172.632463,184.1417 172.396463,183.7067 171.995463,183.4617" id="Skin" fill="#f4d4b8"/><path d="M171.995463,183.4617 C170.256463,182.3967 153.927463,173.7117 149.204463,172.0627 C145.635463,179.7677 122.364463,176.1377 120.171463,169.7407 C120.142463,169.8117 117.416463,175.3697 117.388463,175.4407 C116.625463,177.3807 116.470463,178.9597 116.692463,180.2497 C111.001463,177.2507 102.913463,173.1447 99.8174635,172.0627 C96.2474635,179.7677 72.9764635,176.1377 70.7834635,169.7407 C70.7554635,169.8117 68.0284635,175.3697 68.0004635,175.4407 C64.3504635,184.7277 74.4884635,185.8437 74.4884635,185.8437 L121.891463,185.962706 C122.227463,185.9637 122.532463,185.8367 122.769463,185.6337 C123.432463,185.7937 123.875463,185.8437 123.875463,185.8437 L171.279463,185.962706 C172.026463,185.9647 172.632463,185.3587 172.632463,184.6117 C172.632463,184.1417 172.396463,183.7067 171.995463,183.4617" id="Shoes" fill="#E2A2B5"/><path d="M106.721463,121.6365 L144.959463,115.8415 C146.701463,115.5775 147.889463,113.9375 147.595463,112.1985 L135.628463,41.5715 C134.075463,30.1775 124.243463,21.6165 112.606463,21.8305 L96.2224635,22.1345 L94.3504635,0.4995 L6.65046348,0.4995 C6.65046348,0.4995 -3.29353652,37.0775 1.13746348,49.8745 C5.12746348,61.4015 13.5404635,69.4065 51.7264635,66.2475 L51.6264635,121.9735 C51.6234635,123.7985 53.1664635,125.2445 54.9884635,125.1235 L96.5614635,122.3525 C98.3884635,122.2305 99.7264635,120.5835 99.4734635,118.7705 L91.8164635,64.0445 L96.9244635,64.2575 L103.117463,118.8755 C103.319463,120.6515 104.954463,121.9045 106.721463,121.6365" id="Pants" fill="#94B1EB"/><path d="M95.1614635,53.198 C94.8874635,53.234 94.6944635,53.485 94.7304635,53.759 L98.4604635,82.235 C98.4934635,82.487 98.7074635,82.671 98.9554635,82.671 C98.9764635,82.671 98.9984635,82.67 99.0204635,82.667 C99.2944635,82.631 99.4874635,82.38 99.4514635,82.106 L95.7224635,53.63 C95.6864635,53.356 95.4324635,53.157 95.1614635,53.198 L95.1614635,53.198 Z M122.869463,183.035 C121.104463,181.955 104.807463,173.275 99.9824635,171.591 C99.9594635,171.583 99.9364635,171.586 99.9134635,171.581 C99.8784635,171.574 99.8444635,171.565 99.8094635,171.566 C99.7764635,171.566 99.7464635,171.575 99.7144635,171.582 C99.6834635,171.588 99.6544635,171.593 99.6244635,171.605 C99.5944635,171.618 99.5684635,171.637 99.5404635,171.656 C99.5154635,171.674 99.4894635,171.689 99.4674635,171.712 C99.4434635,171.735 99.4264635,171.764 99.4074635,171.793 C99.3934635,171.814 99.3744635,171.829 99.3634635,171.852 C98.0444635,174.701 93.4214635,176.198 86.9984635,175.872 C79.3724635,175.477 72.3104635,172.654 71.2564635,169.579 C71.1894635,169.386 71.0124635,169.255 70.8074635,169.244 C70.5944635,169.248 70.4134635,169.35 70.3274635,169.537 C70.2824635,169.634 69.6384635,170.95 68.9814635,172.291 C67.6224635,175.07 67.5524635,175.216 67.5354635,175.257 C67.4354635,175.509 67.5564635,175.792 67.8054635,175.898 C68.0544635,176.006 68.3434635,175.891 68.4574635,175.644 C68.5044635,175.542 69.1984635,174.124 69.8804635,172.731 C70.3014635,171.87 70.5924635,171.276 70.7924635,170.866 C73.0214635,174.236 80.4204635,176.533 86.9464635,176.871 C87.5384635,176.901 88.1164635,176.917 88.6804635,176.917 C94.3454635,176.917 98.4874635,175.38 100.051463,172.68 C105.088463,174.592 120.524463,182.772 122.347463,183.888 C122.596463,184.041 122.744463,184.311 122.744463,184.612 C122.744463,184.888 122.968463,185.112 123.244463,185.112 C123.521463,185.112 123.744463,184.888 123.744463,184.612 C123.744463,183.96 123.417463,183.371 122.869463,183.035 L122.869463,183.035 Z M87.9364635,37.793 L90.8114635,64.078 C90.8114635,64.08 90.8124635,64.082 90.8124635,64.083 L96.9354635,104.775 C96.9574635,105.036 97.1764635,105.232 97.4334635,105.232 C97.4474635,105.232 97.4624635,105.231 97.4764635,105.23 C97.7514635,105.207 97.9554635,104.965 97.9324635,104.689 L91.8064635,63.981 C91.8064635,63.979 91.8054635,63.978 91.8054635,63.976 C91.8044635,63.974 91.8054635,63.972 91.8054635,63.969 L88.9314635,37.684 C87.8654635,27.943 79.6754635,20.405 69.8814635,20.148 L37.2644635,19.295 C37.0354635,19.302 36.7584635,19.506 36.750342,19.781 C36.7444635,20.057 36.9614635,20.287 37.2374635,20.295 L69.8544635,21.148 C79.1514635,21.391 86.9254635,28.547 87.9364635,37.793 L87.9364635,37.793 Z M95.6644635,21.479 L85.7364635,21.637 C85.4594635,21.641 85.2394635,21.869 85.2444635,22.145 C85.2484635,22.419 85.4714635,22.637 85.7444635,22.637 L85.7514635,22.637 L95.8724635,22.476 C95.9704635,22.577 96.1014635,22.642 96.2324635,22.635 L112.615463,22.332 C112.756463,22.329 112.894463,22.328 113.034463,22.328 C124.656463,22.328 134.396463,31.304 135.298463,42.938 C135.319463,43.2 135.537463,43.399 135.796463,43.399 C135.809463,43.399 135.822463,43.399 135.835463,43.398 C136.111463,43.377 136.317463,43.136 136.295463,42.861 C135.341463,30.559 124.926463,21.098 112.597463,21.332 L101.302463,21.541 C101.204463,21.447 101.077463,21.39 100.957463,21.395 L96.6664635,21.464 L94.8494635,0.457 C94.8264635,0.198 94.6104635,-1.84741111e-13 94.3504635,-1.84741111e-13 L6.64946348,-1.84741111e-13 C6.37346348,-1.84741111e-13 6.14946348,0.223 6.14946348,0.5 C6.14946348,0.776 6.37346348,1 6.64946348,1 L93.8924635,1 L95.6644635,21.479 Z M149.415463,171.608 C149.166463,171.492 148.867463,171.601 148.751463,171.852 C147.431463,174.701 142.808463,176.198 136.386463,175.872 C128.760463,175.477 121.698463,172.654 120.643463,169.579 C120.577463,169.386 120.399463,169.255 120.195463,169.244 C119.981463,169.248 119.801463,169.35 119.715463,169.537 C119.670463,169.634 119.025463,170.95 118.369463,172.291 C117.010463,175.07 116.939463,175.216 116.923463,175.257 C116.823463,175.509 116.943463,175.792 117.192463,175.898 C117.441463,176.006 117.730463,175.891 117.845463,175.644 C117.891463,175.542 118.586463,174.124 119.267463,172.731 C119.688463,171.87 119.979463,171.276 120.180463,170.866 C122.409463,174.236 129.807463,176.533 136.334463,176.871 C136.926463,176.901 137.504463,176.917 138.067463,176.917 C144.015463,176.917 148.290463,175.226 149.659463,172.272 C149.774463,172.022 149.666463,171.724 149.415463,171.608 L149.415463,171.608 Z M128.452463,164.623 C128.515463,164.353 128.348463,164.085 128.079463,164.021 C127.803463,163.961 127.541463,164.126 127.477463,164.394 L127.097463,166.023 C126.627463,168.039 127.219463,170.114 128.681463,171.576 C128.779463,171.674 128.907463,171.722 129.035463,171.722 C129.163463,171.722 129.291463,171.674 129.389463,171.576 C129.584463,171.381 129.584463,171.064 129.389463,170.869 C128.172463,169.653 127.680463,167.927 128.071463,166.251 L128.452463,164.623 Z M79.0644635,164.623 C79.1274635,164.353 78.9604635,164.085 78.6914635,164.021 C78.4154635,163.961 78.1534635,164.126 78.0904635,164.394 L77.7094635,166.023 C77.2394635,168.039 77.8314635,170.114 79.2944635,171.576 C79.3914635,171.674 79.5194635,171.722 79.6474635,171.722 C79.7754635,171.722 79.9034635,171.674 80.0014635,171.576 C80.1964635,171.381 80.1964635,171.064 80.0014635,170.869 C78.7844635,169.653 78.2924635,167.927 78.6834635,166.251 L79.0644635,164.623 Z" id="Fill-9" fill="#000"/></g></g></g><g id="Upper Body" transform="translate(8.000000, 265.000000) scale(1 1)"><g id="Upper Body/Takling T shirt" stroke="none" stroke-width="1" fill="none" fill-rule="evenodd"><path d="M171.8973,231.4109 C171.8973,231.4109 188.7853,240.1319 206.6213,242.5979 C206.6213,242.5979 200.860031,290.303561 202.695732,306.625564 C202.750325,307.110972 206.364962,310.184074 208.44978,311.243747 C210.750445,312.413131 220.260208,311.281519 220.802654,311.243747 C230.668654,310.562747 238.289719,309.920747 251.192719,311.243747 C260.584293,312.208022 279.763788,310.041026 289.906603,310.041026 C299.86533,310.041026 299.86533,302.815007 299.86533,302.608006 C299.86533,289.717175 288.3263,257.0849 288.3263,249.6749 L288.3263,241.3289 C288.3263,241.3289 315.3513,233.1099 318.3873,229.6949 C318.3873,229.6949 313.4783,188.3729 264.8883,183.3219 C264.8883,183.3219 265.3703,192.3159 249.5633,193.6429 C233.7563,194.9689 234.5163,182.4459 234.5163,182.4459 C234.5163,182.4459 191.0623,179.2359 171.8973,231.4109 Z" id="T-shirt" fill="#83BB9E"/><path d="M285.9597,279.0914 C285.9597,279.0914 290.1497,279.5294 294.3667,279.6064 C294.5677,280.3324 294.7727,281.0344 294.9797,281.7164 C291.4467,280.2784 285.9597,279.0914 285.9597,279.0914 M280.8197,262.3064 C288.2037,259.3574 289.6937,257.2114 289.9317,256.2004 C290.3137,259.1124 290.7227,261.8874 291.1577,264.5214 C283.0327,264.5114 274.9737,264.6414 280.8197,262.3064 M292.0367,269.4564 C291.2417,269.4654 290.4897,269.4784 289.8127,269.4944 C290.4897,269.4594 291.2367,269.4134 292.0177,269.3564 C292.0237,269.3894 292.0297,269.4234 292.0367,269.4564 M293.2197,275.0604 C289.4987,274.6794 286.1297,274.5574 286.1297,274.5574 C286.1297,274.5574 289.2697,274.6744 293.1147,274.6094 C293.1497,274.7604 293.1857,274.9094 293.2197,275.0604 M387.1157,204.3274 C386.6457,201.6374 372.0107,205.6494 372.0107,205.6494 C372.0107,205.6494 387.7477,198.4804 387.0937,195.5804 C386.4387,192.6814 369.3857,201.3794 369.3857,201.3794 C369.3857,201.3794 389.8417,190.7484 386.7807,188.1474 C383.7207,185.5464 367.1307,196.6274 367.1307,196.6274 C367.1307,196.6274 385.1707,183.0174 379.5327,183.3394 C375.0967,183.5924 362.3827,192.6234 357.1647,196.4604 C356.0767,197.2604 354.5107,196.8984 353.9307,195.6784 C351.2447,190.0314 345.7017,185.3774 345.6627,189.4604 C345.6337,192.5704 348.0017,200.6134 349.5897,205.6484 L349.5897,205.6494 C348.9107,209.1464 342.9437,217.7784 331.5547,233.3974 C321.1127,247.7144 319.5667,253.9934 319.5667,253.9934 L315.7307,231.4284 C308.1287,235.3054 288.3257,241.3284 288.3257,241.3284 C288.7637,246.3424 289.2707,251.0774 289.8397,255.5094 C286.8987,253.1014 275.3947,259.5104 270.9587,262.1414 L270.9587,262.1404 C270.9587,262.1404 269.4217,262.8704 266.3507,263.4464 C261.2527,264.1824 246.3327,263.6894 230.4347,260.8634 C212.9877,257.7634 196.6217,257.9514 196.6217,257.9514 L202.9427,242.0014 L202.9247,241.9954 C191.5997,239.8994 181.1277,235.6554 175.7267,233.2264 L175.7227,233.2244 C162.6157,255.3054 163.2767,267.3604 164.7827,274.6064 C165.5627,278.3644 168.4837,281.3074 172.2097,282.2284 C209.6827,291.4894 264.8897,281.8854 264.8897,281.8854 C264.8897,281.8854 264.8937,281.8744 264.8947,281.8714 C267.2707,281.7414 268.9937,281.0624 271.4057,280.8444 C275.1357,282.4014 290.3857,284.8124 295.8917,284.5164 C298.1857,291.0614 300.8237,295.0144 303.7277,295.8604 C310.5347,297.8424 317.4757,295.8624 325.0617,287.2014 C347.4677,261.6224 361.9017,225.5114 365.0217,217.2744 C367.1267,214.8464 369.7677,212.0614 371.4797,211.2044 C374.7007,209.5944 387.5867,207.0174 387.1157,204.3274 M264.8887,183.3214 L257.092773,182.2764 L257.092773,173.0004 L243.871745,173.0004 L243.871745,182.6954 L234.5197,183.0874 C234.5197,183.0874 233.3097,194.2084 249.5637,193.6434 C265.2907,193.0964 264.8887,183.3214 264.8887,183.3214 Z" id="Skin" fill="#f4d4b8"/><path d="M303.9985,265.1875 C304.3475,265.6475 304.2245,266.0495 304.1965,266.1255 C303.850472,267.543322 301.308343,268.437768 298.221372,269.001906 C303.727488,269.274403 306.829661,269.982468 307.4663,271.1197 C307.6443,271.4377 307.6183,271.7447 307.5293,271.9467 C306.98956,273.771735 302.231764,274.535273 297.278825,274.82912 C300.614433,275.38764 302.643412,276.157585 303.2554,277.1149 C303.4664,277.4439 303.4854,277.7579 303.4284,277.9659 C303.1314,279.5489 299.3964,279.9869 295.3464,279.9869 C294.193509,279.9869 293.015279,279.951446 291.883563,279.896703 C295.820252,281.185223 297.440649,282.487068 298.0324,283.1042 C298.2384,283.3182 298.3244,283.6182 298.2674,283.9072 C298.2094,284.2012 298.0094,284.4492 297.7334,284.5712 C294.7964,285.8712 274.5204,283.3692 271.2884,281.3702 C268.9724,281.7572 247.2394,285.2982 221.3274,286.5972 C221.3194,286.5982 221.3104,286.5982 221.3024,286.5982 C221.0374,286.5982 220.8164,286.3902 220.802654,286.1232 C220.7884,285.8472 221.0014,285.6132 221.2774,285.5992 C248.5044,284.2332 271.0964,280.3902 271.3214,280.3512 C271.4654,280.3272 271.6104,280.3662 271.7224,280.4572 C273.5534,281.9532 293.8654,284.9032 297.2154,283.7012 C296.475246,282.989014 293.816481,280.997754 286.173631,279.46047 C286.086763,279.451778 286.004311,279.443202 285.9254,279.4349 C285.6504,279.4069 285.4504,279.1609 285.4804,278.8859 C285.5084,278.6109 285.7584,278.4089 286.0294,278.4409 L286.759097,278.5146 C294.314349,279.249038 302.248775,279.138025 302.4464,277.7779 C302.4514,277.7379 302.4624,277.6999 302.4784,277.6619 C302.4774,277.6629 302.4774,277.6629 302.4764,277.6629 C302.411192,277.576244 301.600672,275.613098 288.22012,274.963956 C287.316569,274.944696 286.594482,274.92083 286.1273,274.9037 C285.8513,274.8927 285.6363,274.6607 285.6463,274.3857 C285.6573,274.1097 285.8903,273.8997 286.1643,273.9037 C286.703954,273.924166 287.259143,273.941124 287.825607,273.954352 C287.865768,273.945796 287.907368,273.94485 287.9494,273.9509 L288.177299,273.962055 C296.136407,274.124892 306.115876,273.554026 306.5733,271.6507 C306.5773,271.6337 306.5823,271.6147 306.5893,271.5977 C306.459198,271.354251 304.954492,269.603109 288.578478,269.910905 C287.596894,269.944563 286.816591,269.957026 286.3475,269.9615 L286.3425,269.9615 C286.0685,269.9615 285.8455,269.7405 285.84247,269.4665 C285.8395,269.1905 286.0615,268.9645 286.3375,268.9615 C286.795298,268.95707 287.266882,268.948227 287.748406,268.934945 C287.775063,268.929194 287.80239,268.926307 287.8303,268.9257 C288.033738,268.921211 288.235628,268.917008 288.435968,268.913091 C294.904619,268.682528 302.789842,267.676022 303.2415,265.8325 C303.2345,265.8325 302.5015,263.9035 289.0065,265.0195 C288.7505,265.0355 288.4895,264.8385 288.4675,264.5625 C288.4445,264.2865 288.6495,264.0455 288.9245,264.0235 C297.7835,263.2895 302.8565,263.6825 303.9985,265.1875 Z M331.8199,232.9727 C332.0539,233.1197 332.1249,233.4287 331.9779,233.6627 C331.8369,233.8877 317.8319,256.2577 313.5329,266.1507 C313.4509,266.3397 313.2659,266.4517 313.0739,266.4517 C313.0079,266.4517 312.9389,266.4377 312.8749,266.4107 C312.6219,266.3007 312.5059,266.0057 312.6149,265.7527 C316.9439,255.7907 330.9889,233.3567 331.1309,233.1317 C331.2769,232.8977 331.5869,232.8267 331.8199,232.9727 Z M290.3696,255.1629 C290.4136,255.2459 290.6236,255.6959 290.3576,256.4279 C289.8806,257.7409 287.8746,259.8809 281.0226,262.6179 C280.9616,262.6419 280.8986,262.6539 280.8366,262.6539 C280.6386,262.6539 280.4506,262.5349 280.3726,262.3399 C280.2706,262.0829 280.3946,261.7919 280.6506,261.6899 C290.0276,257.9439 289.4826,255.6309 289.4756,255.6079 C289.3446,255.3649 289.4416,255.0769 289.6856,254.9449 C289.9266,254.8169 290.2376,254.9209 290.3696,255.1629 Z M215.1193,258.3365 C215.3943,258.3635 215.5953,258.6075 215.5693,258.8825 C215.5413,259.1585 215.2783,259.3515 215.0233,259.3325 L214.987188,259.329051 C214.011091,259.236733 194.2862,257.41848 182.0313,259.3285 C182.0043,259.3325 181.9783,259.3345 181.9533,259.3345 C181.7113,259.3345 181.4983,259.1585 181.4593,258.9115 C181.4173,258.6385 181.6043,258.3835 181.8763,258.3405 C194.5073,256.3725 214.9143,258.3165 215.1193,258.3365 Z M285.9009,223.5124 C285.92746,223.629706 287.87436,232.309619 288.62211,240.92816 C288.746111,241.017475 288.8259,241.163676 288.8259,241.3284 L288.825663,243.844837 C288.931124,245.900665 288.945614,247.895614 288.8249,249.7074 L288.820407,249.730568 L288.81784,249.764238 C288.816968,249.769039 288.816027,249.773816 288.815019,249.778568 L288.8249,249.7074 C288.8223,249.745678 288.815506,249.782641 288.804995,249.817871 C288.800395,249.833223 288.795013,249.848451 288.788934,249.863322 C288.784267,249.874944 288.779225,249.886103 288.7738,249.897026 C288.766925,249.910585 288.759352,249.924169 288.751184,249.937346 C288.728889,249.973683 288.702179,250.00656 288.671855,250.035595 C288.662699,250.04407 288.653157,250.052552 288.643299,250.060663 C288.63094,250.071074 288.618078,250.080645 288.604768,250.089588 C288.595442,250.095685 288.585504,250.101898 288.575341,250.107764 C288.525179,250.136748 288.469954,250.157021 288.411424,250.167109 L288.3259,250.1744 L288.3259,250.1744 C288.3149,250.1744 288.3049,250.1744 288.2929,250.1734 L288.264407,250.168568 L288.236062,250.16634 C288.230163,250.165268 288.2243,250.164093 288.218475,250.162816 L288.2929,250.1734 C288.253735,250.170704 288.21592,250.163598 288.179913,250.152602 C288.164294,250.147961 288.148911,250.142417 288.133897,250.136162 C288.121774,250.131012 288.10971,250.12542 288.097926,250.11938 C288.084828,250.11273 288.07223,250.105538 288.059988,250.097831 C288.048243,250.090437 288.036473,250.082336 288.02509,250.073768 C288.012803,250.064451 288.001236,250.054863 287.990124,250.044783 C287.978661,250.034521 287.967715,250.023661 287.957293,250.012329 C287.94933,250.003443 287.941568,249.994354 287.934134,249.984992 C287.924196,249.972797 287.915065,249.960158 287.906535,249.947107 C287.898724,249.93467 287.891347,249.922196 287.884511,249.90939 C287.878153,249.89815 287.872344,249.886195 287.867013,249.873996 C287.861746,249.861058 287.856806,249.8483 287.852386,249.835301 C287.846615,249.819531 287.841878,249.802878 287.838016,249.785916 C287.835715,249.774122 287.833487,249.762416 287.831674,249.750573 C287.828847,249.734387 287.827154,249.717709 287.826315,249.700833 C287.826131,249.692065 287.8259,249.683259 287.8259,249.6744 L287.82598,243.854385 C287.343266,234.51138 284.95565,223.863185 284.9269,223.7334 C284.8649,223.4634 285.0339,223.1954 285.3039,223.1354 C285.5729,223.0684 285.8409,223.2424 285.9009,223.5124 Z M207.9893,223.1247 C208.2643,223.1447 208.4693,223.3867 208.4483,223.6617 L206.5983,247.4497 C206.5793,247.7117 206.3593,247.9107 206.1013,247.9107 L206.0613,247.9087 L206.0613,247.9087 C205.7863,247.8887 205.5803,247.6467 205.6023,247.3717 L207.4523,223.5837 C207.4723,223.3077 207.7213,223.0887 207.9893,223.1247 Z M387.6082,204.2419 C387.9762,206.3459 383.6262,207.8339 376.9502,209.8629 C375.1942,210.3959 373.5362,210.8999 372.4342,211.3329 C371.9952,211.5059 371.5642,211.7519 371.1522,212.0629 C370.0112,212.9269 367.7802,214.7579 365.6542,217.3069 C365.5552,217.4249 365.4132,217.4869 365.2702,217.4869 C365.1572,217.4869 365.0432,217.4489 364.9502,217.3709 C364.7382,217.1939 364.7092,216.8789 364.8862,216.6669 C367.0752,214.0419 369.3742,212.1569 370.5482,211.2659 C371.0332,210.8989 371.5442,210.6079 372.0692,210.4019 C373.2072,209.9549 374.8842,209.4449 376.6592,208.9059 C380.2262,207.8219 386.8672,205.8039 386.6242,204.4139 C386.5762,204.1419 386.7572,203.8829 387.0302,203.8359 C387.2952,203.7809 387.5602,203.9679 387.6082,204.2419 Z M357.8955,200.2248 C357.9405,200.2608 362.3615,203.9148 359.6385,210.8398 C359.5615,211.0368 359.3725,211.1568 359.1735,211.1568 C359.1125,211.1568 359.0505,211.1458 358.9905,211.1218 C358.7335,211.0208 358.6075,210.7308 358.7085,210.4738 C361.1645,204.2248 357.3095,201.0368 357.2705,201.0048 C357.0545,200.8318 357.0205,200.5168 357.1935,200.3028 C357.3665,200.0878 357.6825,200.0528 357.8955,200.2248 Z M387.5804,195.47 C388.2714,198.529 375.9964,204.382 372.2174,206.104 C372.1504,206.134 372.0794,206.149 372.0104,206.149 C371.8214,206.149 371.6394,206.041 371.5554,205.856 C371.4414,205.605 371.5514,205.308 371.8034,205.194 C379.1944,201.827 386.9544,197.236 386.6064,195.691 C386.5444,195.421 386.7134,195.154 386.9834,195.093 C387.2584,195.029 387.5214,195.202 387.5804,195.47 Z M387.1054,187.7675 C387.4714,188.0785 387.6374,188.4965 387.5824,188.9745 C387.1734,192.6005 371.4114,200.8905 369.6154,201.8225 C369.5424,201.8615 369.4634,201.8795 369.3854,201.8795 C369.2044,201.8795 369.0314,201.7815 368.9424,201.6095 C368.8144,201.3645 368.9094,201.0635 369.1554,200.9365 C375.7554,197.5055 386.3254,191.1935 386.5894,188.8615 C386.6064,188.7175 386.5694,188.6235 386.4564,188.5285 C386.2464,188.3505 386.2214,188.0345 386.4004,187.8235 C386.5784,187.6135 386.8944,187.5885 387.1054,187.7675 Z M381.0616,183.5375 C381.3386,184.2925 380.5656,187.1175 367.4306,197.0275 C367.3406,197.0955 367.2346,197.1285 367.1296,197.1285 C366.9786,197.1285 366.8286,197.0605 366.7306,196.9295 C366.5646,196.7095 366.6086,196.3965 366.8286,196.2295 C373.4646,191.2225 380.4306,185.0815 380.1226,183.8835 C380.1206,183.8825 380.0256,183.8335 379.7226,183.8335 C379.6736,183.8335 379.6206,183.8355 379.5616,183.8385 C379.2646,183.8725 379.0496,183.6435 379.0336,183.3675 C379.0186,183.0925 379.2286,182.8565 379.5046,182.8405 C380.3396,182.7955 380.8736,183.0255 381.0616,183.5375 Z M234.5456,181.9468 C234.8206,181.9638 235.0306,182.1998 235.0156,182.4748 C235.0126,182.5198 234.7916,187.0048 238.0036,190.1348 C240.4976,192.5628 244.3716,193.5748 249.5216,193.1448 C249.7926,193.1198 250.0376,193.3258 250.0616,193.6008 C250.0846,193.8768 249.8806,194.1188 249.6056,194.1408 C248.8076,194.2088 248.0366,194.2418 247.2956,194.2418 C242.9666,194.2418 239.6096,193.1018 237.2966,190.8418 C233.7586,187.3848 234.0046,182.6168 234.0176,182.4158 C234.0336,182.1388 234.2996,181.9388 234.5456,181.9468 Z" id="Combined-Shape" fill="#000"/></g></g><g id="Hair" transform="translate(104.000000, 285.000000) scale(1 1)"><g id="Hair/Side Tail" stroke="none" stroke-width="1" fill="none" fill-rule="evenodd"><g id="Head" transform="translate(132.000000, 111.000000)"><path d="M44.1789,24.3663 C44.5879,35.6913 33.3599,45.0883 22.4569,45.0883 C11.5539,45.0883 0.4939,36.9643 0.0189,25.3903 C-0.4461,14.0673 7.7449,1.3583 15.9329,0.2613 C32.6079,-1.9747 43.6789,10.5083 44.1789,24.3663" id="Fill-1" fill="#000"/><path d="M22.4567,44.088 C12.4757,44.088 1.4787,36.559 1.0177,25.35 C0.5797,14.678 8.3147,2.291 16.0657,1.252 C17.3127,1.085 18.5577,1 19.7657,1 C34.4247,1 42.7697,13.058 43.1797,24.402 C43.3447,28.984 41.4627,33.553 37.8807,37.268 C33.7607,41.538 27.9947,44.088 22.4567,44.088" id="Fill-4" fill="#f4d4b8"/></g><path d="M174.8031,113.3184 C161.0591,112.4594 172.6561,104.0124 159.4841,102.4374 C159.4841,102.4374 136.5781,98.1424 128.5601,116.4674 C120.5431,134.7934 132.4261,149.1094 132.4261,149.1094 C132.4261,149.1094 113.7031,150.8604 119.7601,164.8374 C124.8631,176.6114 137.0301,173.2754 129.1801,189.9574 C121.3301,206.6374 132.9081,211.7404 143.7021,211.7404 C143.7021,211.7404 130.9461,198.9844 141.5441,190.7424 C152.1411,182.4994 151.9451,170.7244 142.1321,164.4444 C132.3201,158.1644 140.4921,149.1094 140.4921,149.1094 C140.4921,149.1094 134.4301,133.7904 142.3041,129.6394 C150.1781,125.4874 150.8941,123.4834 150.8941,119.1884 C150.8941,119.1884 151.7531,126.7764 158.0531,126.7764 L183.9661,126.7764 C183.9661,126.7764 182.7531,113.8154 174.8031,113.3184" id="Hair" fill="#372310"/><path d="M138.9793,148.9605 L132.6893,148.9605 C132.1623,148.9605 131.7353,148.5335 131.7353,148.0055 C131.7353,147.4795 132.1623,147.0515 132.6893,147.0515 L138.9793,147.0515 C139.5063,147.0515 139.9333,147.4795 139.9333,148.0055 C139.9333,148.5335 139.5063,148.9605 138.9793,148.9605" id="Fill-6" fill="#71BD9C"/><path d="M138.9795,148.7419 L132.6895,148.7419 C132.4555,148.7419 132.2655,148.5519 132.2655,148.3169 C132.2655,148.0829 132.4555,147.8929 132.6895,147.8929 L138.9795,147.8929 C139.2135,147.8929 139.4035,148.0829 139.4035,148.3169 C139.4035,148.5519 139.2135,148.7419 138.9795,148.7419 M142.4305,164.2889 C139.7595,162.5799 138.2425,160.5069 137.9205,158.1279 C137.4435,154.6059 139.7085,151.3069 140.5765,150.1919 C140.6725,150.2899 141.0125,149.2069 140.9575,149.1489 C140.9415,149.1209 140.9175,149.1009 140.8965,149.0769 C140.3585,147.6389 135.5165,134.0949 142.5385,130.3929 C148.6435,127.1729 150.5815,125.1169 151.1625,122.3839 C152.0805,124.6969 154.0325,127.5869 158.0525,127.5869 L173.2265,127.5869 C173.5505,127.4689 173.9385,127.7269 174.2785,127.3349 C174.2095,127.1809 174.1465,127.0259 174.0755,126.8729 C173.9925,126.6989 173.8165,126.5869 173.6235,126.5869 L158.0525,126.5869 C152.2795,126.5869 151.4245,119.7339 151.3915,119.4429 C151.3615,119.1799 151.1305,118.9939 150.8655,118.999759 C150.6015,119.0149 150.3945,119.2339 150.3945,119.4989 C150.3945,123.6629 149.7125,125.4789 142.0715,129.5079 C135.9235,132.7489 137.7135,142.0949 139.1045,146.8459 C139.0625,146.8419 139.0215,146.8329 138.9795,146.8329 L132.6895,146.8329 C131.8715,146.8329 131.2055,147.4989 131.2055,148.3169 C131.2055,148.5649 131.2715,148.7949 131.3795,148.9999 C128.8075,149.3959 121.9665,150.8679 119.1815,155.5759 C117.5835,158.2769 117.6065,161.5719 119.2525,165.3679 C119.3735,165.6479 119.6995,165.7759 119.9805,165.6559 C120.2605,165.5339 120.3895,165.2089 120.2685,164.9279 C118.7715,161.4759 118.7265,158.5199 120.1325,156.1419 C123.1365,151.0599 131.8055,150.0429 132.3725,149.9799 C129.7775,152.2119 124.8315,158.0029 129.9385,166.7399 C131.8115,169.9429 133.3125,171.9819 134.5195,173.6199 C137.3675,177.4879 138.0445,178.4069 136.6435,185.9969 C136.5875,186.2979 136.7865,186.5859 137.0865,186.6419 C137.1215,186.6479 137.1545,186.6509 137.1875,186.6509 C137.4495,186.6509 137.6825,186.4649 137.7315,186.1979 C139.2195,178.1369 138.3365,176.9369 135.4105,172.9639 C134.2195,171.3459 132.7365,169.3339 130.8935,166.1809 C125.1215,156.3079 133.0455,150.7089 134.1835,149.9739 L135.4305,149.9739 C134.0835,151.9169 131.3155,156.7509 133.5295,161.1239 C133.6265,161.3159 133.8215,161.4279 134.0235,161.4279 C134.1075,161.4279 134.1925,161.4079 134.2725,161.3669 C134.5455,161.2289 134.6545,160.8969 134.5165,160.6239 C132.2815,156.2089 136.0575,150.9429 136.8015,149.9739 L139.3505,149.9739 C138.2475,151.4989 136.3455,154.7199 136.8225,158.2699 C137.1875,160.9889 138.8745,163.3269 141.8335,165.2219 C146.2035,168.0179 148.7215,172.0059 148.9255,176.4499 C149.1585,181.5309 146.4165,186.5609 141.2035,190.6159 C138.4715,192.7409 136.9905,195.3519 136.8015,198.3759 C136.3645,205.4099 143.0275,212.1589 143.3115,212.4429 C143.4195,212.5509 143.5615,212.6049 143.7025,212.6049 C143.8445,212.6049 143.9855,212.5509 144.0935,212.4429 C144.3105,212.2269 144.3105,211.8769 144.0945,211.6599 C144.0275,211.5949 137.4985,204.9749 137.9065,198.4409 C138.0755,195.7499 139.4135,193.4109 141.8835,191.4889 C147.3875,187.2089 150.2815,181.8489 150.0315,176.3989 C149.8105,171.5859 147.1115,167.2849 142.4305,164.2889" id="Fill-1" fill="#000"/></g></g><g id="Expression" transform="translate(201.000000, 388.000000) scale(1 1)"><g id="Expression/Happy" stroke="none" stroke-width="1" fill="none" fill-rule="evenodd"><path d="M65.5638,42.4847 C65.7318,42.7047 65.6888,43.0187 65.4678,43.1857 C63.3578,44.7897 61.4758,45.3127 59.9198,45.3127 C57.0168,45.3127 55.2448,43.4917 55.2178,43.4637 C55.0288,43.2627 55.0378,42.9477 55.2368,42.7577 C55.4378,42.5677 55.7538,42.5767 55.9438,42.7747 C56.0888,42.9257 59.5458,46.4277 64.8638,42.3897 C65.0828,42.2217 65.3978,42.2647 65.5638,42.4847 Z M61.1759,29.2677 C61.5959,29.7817 65.2429,34.3587 64.0529,36.8667 C63.5839,37.8557 62.4859,38.3567 60.7889,38.3567 C59.0919,38.3567 57.9939,37.8557 57.5249,36.8677 C56.3349,34.3597 59.9819,29.7817 60.4019,29.2677 C60.5909,29.0357 60.9859,29.0357 61.1759,29.2677 Z M60.7889,30.3977 C59.6359,31.9377 57.7339,34.9747 58.4289,36.4387 C58.7179,37.0477 59.5119,37.3567 60.7889,37.3567 C62.0659,37.3567 62.8599,37.0477 63.1489,36.4387 C63.8449,34.9747 61.9419,31.9377 60.7889,30.3977 Z M53.8972,27.8363 C54.5552,27.8363 55.0892,28.6193 55.0892,29.5843 C55.0892,30.5493 54.5552,31.3323 53.8972,31.3323 C53.2392,31.3323 52.7062,30.5493 52.7062,29.5843 C52.7062,28.6193 53.2392,27.8363 53.8972,27.8363 Z M67.769,27.8363 C68.428,27.8363 68.961,28.6193 68.961,29.5843 C68.961,30.5493 68.428,31.3323 67.769,31.3323 C67.112,31.3323 66.578,30.5493 66.578,29.5843 C66.578,28.6193 67.112,27.8363 67.769,27.8363 Z M55.0896,23.9998 C55.3656,23.9998 55.5896,24.2238 55.5896,24.4998 C55.5896,24.7758 55.3656,24.9998 55.0896,24.9998 C52.5666,24.9998 51.0876,26.4288 51.0726,26.4438 C50.9746,26.5398 50.8476,26.5878 50.7206,26.5878 C50.5916,26.5878 50.4636,26.5388 50.3666,26.4408 C50.1716,26.2448 50.1716,25.9298 50.3666,25.7348 C50.4376,25.6648 52.1356,23.9998 55.0896,23.9998 Z M66.5776,23.9998 C69.5316,23.9998 71.2296,25.6648 71.3006,25.7348 C71.4956,25.9298 71.4956,26.2448 71.3006,26.4408 C71.2036,26.5388 71.0746,26.5878 70.9466,26.5878 C70.8196,26.5878 70.6926,26.5398 70.5946,26.4438 C70.5806,26.4288 69.1006,24.9998 66.5776,24.9998 C66.3016,24.9998 66.0776,24.7758 66.0776,24.4998 C66.0776,24.2238 66.3016,23.9998 66.5776,23.9998 Z" id="Combined-Shape" fill="#000"/><path d="M51.4996066,33 C53.4327301,33 55,33.8954741 55,35 C55,36.1045259 53.4327301,37 51.4996066,37 C49.5664831,37 48,36.1045259 48,35 C48,33.8954741 49.5664831,33 51.4996066,33 Z M69.5,33 C71.4329063,33 73,33.8954741 73,35 C73,36.1045259 71.4329063,37 69.5,37 C67.5670937,37 66,36.1045259 66,35 C66,33.8954741 67.5670937,33 69.5,33 Z" id="Cheeks" fill="#E2A2B5"/></g></g><g id="Facial Hair" transform="translate(201.000000, 387.000000) scale(1 1)" fill="#000"><g id="Facial Hair/None" stroke="none" stroke-width="1" fill="none" fill-rule="evenodd" fill-opacity="0"/></g><g id="Accesories" transform="translate(104.500000, 286.000000) scale(1 1)"><g id="Accesories/None" stroke="none" stroke-width="1" fill="none" fill-rule="evenodd" fill-opacity="0"/></g></g></g><g id="Working Stuff" transform="translate(455.721600, 205.000000) scale(1 1)"><g id="Working Stuff/Windows" stroke="none" stroke-width="1" fill="none" fill-rule="evenodd"><g id="Working-Windows" transform="translate(8.000000, 24.000000)"><polygon id="Fill-1" fill="#F1EFEF" points="59 59 210 59 210 1 59 1"/><path d="M210.224867,0.823099559 C210.47268,0.823099559 210.673803,1.02440352 210.673803,1.27243877 L210.673803,59.0296018 C210.673803,59.277637 210.47268,59.478941 210.224867,59.478941 L59.2377562,59.478941 C58.9899434,59.478941 58.78882,59.277637 58.78882,59.0296018 C58.78882,58.7815665 58.9899434,58.5802626 59.2377562,58.5802626 L209.775931,58.5802626 L209.775931,1.27243877 C209.775931,1.02440352 209.977054,0.823099559 210.224867,0.823099559 Z M120.630945,9.72639648 C120.878757,9.72639648 121.079881,9.92680176 121.079881,10.1757357 L121.079881,51.1410925 C121.079881,51.3891278 120.878757,51.5904317 120.630945,51.5904317 L69.0005915,51.5904317 C68.7518809,51.5904317 68.5516553,51.3891278 68.5516553,51.1410925 L68.5516553,10.1757357 C68.5516553,9.92680176 68.7518809,9.72639648 69.0005915,9.72639648 L120.630945,9.72639648 Z M120.182009,10.6250749 L69.4495277,10.6250749 L69.4495277,50.6917533 L120.182009,50.6917533 L120.182009,10.6250749 Z" id="Combined-Shape" fill="#000"/><polygon id="Fill-8" fill="#F1EFEF" points="0.44893617 156.955084 156.641911 156.955084 156.641911 53.6007753 0.44893617 53.6007753"/><polygon id="Fill-9" fill="#F1EFEF" points="108.915506 204 206.536677 204 206.536677 117.437498 108.915506 117.437498"/><path d="M206.536677,169.115101 L206.536677,204 L108.915506,204 L108.915506,169.115101 L206.536677,169.115101 Z M156.641911,44.4818855 L156.641911,53.6007753 L0.44893617,53.6007753 L0.44893617,44.4818855 L156.641911,44.4818855 Z" id="Interface-color" fill="#94B1EB"/><path d="M186.362383,180.824881 C186.610196,180.824881 186.811319,181.025286 186.811319,181.27422 L186.811319,194.012088 C186.811319,194.260123 186.610196,194.461427 186.362383,194.461427 L129.090698,194.461427 C128.842885,194.461427 128.641762,194.260123 128.641762,194.012088 L128.641762,181.27422 C128.641762,181.025286 128.842885,180.824881 129.090698,180.824881 L186.362383,180.824881 Z M185.912549,181.723559 L129.539634,181.723559 L129.539634,193.562749 L185.912549,193.562749 L185.912549,181.723559 Z M206.537305,116.988428 C206.785118,116.988428 206.986241,117.188833 206.986241,117.437767 C206.986241,117.685803 206.785118,117.887107 206.537305,117.887107 L109.365071,117.887107 L109.365071,191.550878 C109.365071,191.798913 109.163948,192.000217 108.916135,192.000217 C108.668322,192.000217 108.467199,191.798913 108.467199,191.550878 L108.467199,117.437767 C108.467199,117.188833 108.668322,116.988428 108.916135,116.988428 L206.537305,116.988428 Z M206.536946,168.665313 C206.784759,168.665313 206.985882,168.866617 206.985882,169.114652 C206.985882,169.362687 206.784759,169.563991 206.536946,169.563991 L128.150895,169.563991 C127.903082,169.563991 127.701959,169.362687 127.701959,169.114652 C127.701959,168.866617 127.903082,168.665313 128.150895,168.665313 L206.536946,168.665313 Z M199.305751,157.519184 C199.553564,157.519184 199.754688,157.720488 199.754688,157.968523 C199.754688,158.216559 199.553564,158.417863 199.305751,158.417863 L142.613194,158.417863 C142.365381,158.417863 142.164258,158.216559 142.164258,157.968523 C142.164258,157.720488 142.365381,157.519184 142.613194,157.519184 L199.305751,157.519184 Z M124.680618,133.200407 C130.669427,133.200407 135.54218,138.077535 135.54218,144.072619 C135.54218,150.066804 130.669427,154.943931 124.680618,154.943931 C118.690912,154.943931 113.818159,150.066804 113.818159,144.072619 C113.818159,138.077535 118.690912,133.200407 124.680618,133.200407 Z M124.680618,134.099085 C119.186537,134.099085 114.716031,138.573605 114.716031,144.072619 C114.716031,149.571632 119.186537,154.045253 124.680618,154.045253 C130.174699,154.045253 134.644308,149.571632 134.644308,144.072619 C134.644308,138.573605 130.174699,134.099085 124.680618,134.099085 Z M199.305751,145.359796 C199.553564,145.359796 199.754688,145.5611 199.754688,145.809135 C199.754688,146.05717 199.553564,146.258474 199.305751,146.258474 L142.613194,146.258474 C142.365381,146.258474 142.164258,146.05717 142.164258,145.809135 C142.164258,145.5611 142.365381,145.359796 142.613194,145.359796 L199.305751,145.359796 Z M199.305751,133.200407 C199.553564,133.200407 199.754688,133.401711 199.754688,133.649746 C199.754688,133.897781 199.553564,134.099085 199.305751,134.099085 L142.613194,134.099085 C142.365381,134.099085 142.164258,133.897781 142.164258,133.649746 C142.164258,133.401711 142.365381,133.200407 142.613194,133.200407 L199.305751,133.200407 Z" id="Combined-Shape" fill="#000"/><path d="M72.9045404,65.7455154 C73.1532511,65.7455154 73.3534766,65.9468194 73.3534766,66.1948546 L73.3534766,145.808775 C73.3534766,146.057709 73.1532511,146.258115 72.9045404,146.258115 L9.84965957,146.258115 C9.60094894,146.258115 9.4007234,146.057709 9.4007234,145.808775 L9.4007234,66.1948546 C9.4007234,65.9468194 9.60094894,65.7455154 9.84965957,65.7455154 L72.9045404,65.7455154 Z M72.4565021,66.6441938 L10.2985957,66.6441938 L10.2985957,145.359436 L72.4565021,145.359436 L72.4565021,66.6441938 Z M147.530751,90.9326855 C147.778564,90.9326855 147.979687,91.1339894 147.979687,91.3820247 C147.979687,91.6300599 147.778564,91.8313639 147.530751,91.8313639 L81.5829255,91.8313639 C81.3342149,91.8313639 81.1339894,91.6300599 81.1339894,91.3820247 C81.1339894,91.1339894 81.3342149,90.9326855 81.5829255,90.9326855 L147.530751,90.9326855 Z M147.530751,82.537052 C147.778564,82.537052 147.979687,82.7383559 147.979687,82.9863912 C147.979687,83.2344264 147.778564,83.4357304 147.530751,83.4357304 L81.5829255,83.4357304 C81.3342149,83.4357304 81.1339894,83.2344264 81.1339894,82.9863912 C81.1339894,82.7383559 81.3342149,82.537052 81.5829255,82.537052 L147.530751,82.537052 Z M147.530751,74.1413286 C147.778564,74.1413286 147.979687,74.3426326 147.979687,74.5906678 C147.979687,74.8387031 147.778564,75.040007 147.530751,75.040007 L81.5829255,75.040007 C81.3342149,75.040007 81.1339894,74.8387031 81.1339894,74.5906678 C81.1339894,74.3426326 81.3342149,74.1413286 81.5829255,74.1413286 L147.530751,74.1413286 Z M147.530751,65.7456053 C147.778564,65.7456053 147.979687,65.9469093 147.979687,66.1949445 C147.979687,66.4429797 147.778564,66.6442837 147.530751,66.6442837 L81.5829255,66.6442837 C81.3342149,66.6442837 81.1339894,66.4429797 81.1339894,66.1949445 C81.1339894,65.9469093 81.3342149,65.7456053 81.5829255,65.7456053 L147.530751,65.7456053 Z M156.641911,44.0329057 C156.889723,44.0329057 157.090847,44.233311 157.090847,44.4822449 L157.090847,53.6011348 C157.090847,53.84917 156.889723,54.050474 156.641911,54.050474 L0.44893617,54.050474 C0.201123404,54.050474 8.52651283e-14,53.84917 8.52651283e-14,53.6011348 C8.52651283e-14,53.3530996 0.201123404,53.1517956 0.44893617,53.1517956 L156.192974,53.1517956 L156.192974,44.4822449 C156.192974,44.233311 156.394098,44.0329057 156.641911,44.0329057 Z M20.8325238,46.3485304 C22.2754047,46.3485304 23.4507196,47.5240018 23.4507196,48.9690767 C23.4507196,50.4141515 22.2754047,51.5905216 20.8325238,51.5905216 C19.389643,51.5905216 18.2143281,50.4141515 18.2143281,48.9690767 C18.2143281,47.5240018 19.389643,46.3485304 20.8325238,46.3485304 Z M30.0883306,46.3485304 C31.5312115,46.3485304 32.7065264,47.5240018 32.7065264,48.9690767 C32.7065264,50.4141515 31.5312115,51.5905216 30.0883306,51.5905216 C28.6454498,51.5905216 27.4701349,50.4141515 27.4701349,48.9690767 C27.4701349,47.5240018 28.6454498,46.3485304 30.0883306,46.3485304 Z M39.3441374,46.3485304 C40.7870183,46.3485304 41.9623332,47.5240018 41.9623332,48.9690767 C41.9623332,50.4141515 40.7870183,51.5905216 39.3441374,51.5905216 C37.9012566,51.5905216 36.7259417,50.4141515 36.7259417,48.9690767 C36.7259417,47.5240018 37.9012566,46.3485304 39.3441374,46.3485304 Z M20.8325238,47.2472088 C19.8834728,47.2472088 19.1122004,48.0191736 19.1122004,48.9690767 C19.1122004,49.9189797 19.8834728,50.6918432 20.8325238,50.6918432 C21.7815749,50.6918432 22.5528472,49.9189797 22.5528472,48.9690767 C22.5528472,48.0191736 21.7815749,47.2472088 20.8325238,47.2472088 Z M30.0883306,47.2472088 C29.1392796,47.2472088 28.3680072,48.0191736 28.3680072,48.9690767 C28.3680072,49.9189797 29.1392796,50.6918432 30.0883306,50.6918432 C31.0373817,50.6918432 31.808654,49.9189797 31.808654,48.9690767 C31.808654,48.0191736 31.0373817,47.2472088 30.0883306,47.2472088 Z M39.3441374,47.2472088 C38.3950864,47.2472088 37.623814,48.0191736 37.623814,48.9690767 C37.623814,49.9189797 38.3950864,50.6918432 39.3441374,50.6918432 C40.2931885,50.6918432 41.0644609,49.9189797 41.0644609,48.9690767 C41.0644609,48.0191736 40.2931885,47.2472088 39.3441374,47.2472088 Z" id="Combined-Shape" fill="#000"/><path d="M176.367268,83.5993797 L190.255557,87.7144282 C191.157021,87.9813357 191.446136,89.1172652 190.780813,89.7831859 L187.051949,93.5136993 L193.054764,99.5210855 C193.756003,100.222953 193.756003,101.36068 193.054764,102.062548 C192.703696,102.413931 192.244883,102.589174 191.785173,102.589174 C191.325462,102.589174 190.866649,102.413931 190.515581,102.062548 L184.512949,96.0546993 L181.002983,99.5688952 C180.338557,100.234816 179.203647,99.9463401 178.936979,99.044067 L174.825621,85.1424106 C174.546383,84.1987982 175.423604,83.3198907 176.367268,83.5993797 Z" id="Combined-Shape" fill="#000"/></g></g></g></g></svg>