<?xml version="1.0" encoding="utf-8"?>
<!-- Generator: Adobe Illustrator 25.1.0, SVG Export Plug-In . SVG Version: 6.00 Build 0)  -->
<svg version="1.1" id="레이어_1" xmlns="http://www.w3.org/2000/svg" xmlns:xlink="http://www.w3.org/1999/xlink" x="0px"
	 y="0px" viewBox="0 0 500 500" style="enable-background:new 0 0 500 500;" xml:space="preserve">
<style type="text/css">
	.st0{fill:#CBA585;}
	.st1{font-family:'H2wulB';}
	.st2{font-size:89px;}
	.st3{fill:none;stroke:#000000;stroke-width:10;stroke-linecap:round;stroke-linejoin:round;stroke-miterlimit:10;}
	.st4{fill:none;stroke:#000000;stroke-width:9;stroke-linejoin:round;stroke-miterlimit:10;}
	.st5{fill:none;stroke:#CBA585;stroke-width:8;stroke-miterlimit:10;}
	.st6{fill:none;stroke:#000000;stroke-width:9;stroke-miterlimit:10;}
	.st7{fill:none;stroke:#CBA585;stroke-width:8;stroke-linecap:round;stroke-linejoin:round;stroke-miterlimit:10;}
	.st8{fill:none;stroke:#CBA585;stroke-width:7;stroke-miterlimit:10;}
</style>
<text transform="matrix(1 0 0 1 194.5582 179.3656)" class="st0 st1 st2">04</text>
<path class="st3" d="M294.3,366.2H186.1c-3.4,0-6.2-2.8-6.2-6.2V221c0-3.4,2.8-6.2,6.2-6.2h108.2c3.4,0,6.2,2.8,6.2,6.2v139
	C300.5,363.5,297.7,366.2,294.3,366.2z"/>
<rect x="216.6" y="211.6" class="st4" width="47.9" height="19.6"/>
<line class="st5" x1="204.2" y1="266.2" x2="247.1" y2="266.2"/>
<line class="st5" x1="204.2" y1="287.7" x2="263.6" y2="287.7"/>
<line class="st5" x1="204.2" y1="307.5" x2="265.8" y2="307.5"/>
<line class="st6" x1="179.9" y1="350.6" x2="300.5" y2="350.6"/>
<path class="st7" d="M323.7,244.6l11.4,9.7l-52.7,56.4c0,0-19.9,16.3-22.7,13.7C256.9,321.8,272,301,272,301L323.7,244.6z"/>
<line class="st8" x1="272" y1="301" x2="282.4" y2="310.8"/>
<line class="st8" x1="312.2" y1="257.2" x2="323.4" y2="266.9"/>
</svg>
