<svg width="321" height="317" xmlns="http://www.w3.org/2000/svg" xmlns:xlink="http://www.w3.org/1999/xlink" xml:space="preserve" overflow="hidden"><g transform="translate(-2025 -792)"><g><path d="M2282 1023.02 2282 1098 2035 1098 2036.98 868.038 2103.49 804 2282 804 2282 931.896" stroke="#000000" stroke-width="17.9439" stroke-linecap="round" stroke-linejoin="round" stroke-miterlimit="10" stroke-opacity="1" fill="none" fill-rule="evenodd"/><path d="M2037 868 2104 868 2104 804" stroke="#000000" stroke-width="17.9439" stroke-linecap="butt" stroke-linejoin="miter" stroke-miterlimit="8" stroke-opacity="1" fill="none" fill-rule="evenodd"/><path d="M2085 905C2085.53 905 2171 905 2171 905" stroke="#CBA585" stroke-width="17.9439" stroke-linecap="butt" stroke-linejoin="miter" stroke-miterlimit="8" stroke-opacity="1" fill="none" fill-rule="evenodd"/><path d="M2085 947 2201 946" stroke="#CBA585" stroke-width="17.9439" stroke-linecap="butt" stroke-linejoin="miter" stroke-miterlimit="8" stroke-opacity="1" fill="none" fill-rule="evenodd"/><path d="M2085 988 2201 988" stroke="#CBA585" stroke-width="17.9439" stroke-linecap="butt" stroke-linejoin="miter" stroke-miterlimit="8" stroke-opacity="1" fill="none" fill-rule="evenodd"/><path d="M2085 1031 2220 1031" stroke="#CBA585" stroke-width="17.9439" stroke-linecap="butt" stroke-linejoin="miter" stroke-miterlimit="8" stroke-opacity="1" fill="none" fill-rule="evenodd"/><path d="M2325 977.5C2325 1002.63 2304.63 1023 2279.5 1023 2254.37 1023 2234 1002.63 2234 977.5 2234 952.371 2254.37 932 2279.5 932 2304.63 932 2325 952.371 2325 977.5Z" stroke="#CBA585" stroke-width="19.7383" stroke-linecap="round" stroke-linejoin="round" stroke-miterlimit="10" stroke-opacity="1" fill="none" fill-rule="evenodd"/><path d="M2336 1046 2309 1012" stroke="#CBA585" stroke-width="19.7383" stroke-linecap="round" stroke-linejoin="round" stroke-miterlimit="10" stroke-opacity="1" fill="none" fill-rule="evenodd"/></g></g></svg>