<?xml version="1.0" encoding="utf-8"?>
<!-- Generator: Adobe Illustrator 25.1.0, SVG Export Plug-In . SVG Version: 6.00 Build 0)  -->
<svg version="1.1" id="레이어_1" xmlns="http://www.w3.org/2000/svg" xmlns:xlink="http://www.w3.org/1999/xlink" x="0px"
	 y="0px" viewBox="0 0 500 500" style="enable-background:new 0 0 500 500;" xml:space="preserve">
<style type="text/css">
	.st0{fill:#CBA585;}
	.st1{font-family:'H2wulB';}
	.st2{font-size:89px;}
	.st3{fill:none;stroke:#CBA585;stroke-width:10;stroke-miterlimit:10;}
	.st4{fill:none;stroke:#000000;stroke-width:9;stroke-linecap:round;stroke-linejoin:round;stroke-miterlimit:10;}
	.st5{fill:none;stroke:#000000;stroke-width:8;stroke-linecap:round;stroke-linejoin:round;stroke-miterlimit:10;}
</style>
<text transform="matrix(1 0 0 1 194.5582 179.3656)" class="st0 st1 st2">07</text>
<circle class="st3" cx="250.2" cy="275.5" r="44.7"/>
<circle class="st3" cx="250.2" cy="275.5" r="29.7"/>
<polygon class="st4" points="250.1,205.1 267.6,216.4 288.4,216.4 297,235.3 314.5,246.5 311.6,267.1 320.2,286 306.6,301.7 
	303.6,322.2 283.7,328.1 270.1,343.8 250.1,337.9 230.2,343.8 216.6,328.1 196.7,322.2 193.7,301.7 180.1,286 188.7,267.1 
	185.8,246.5 203.3,235.3 211.9,216.4 232.7,216.4 "/>
<polyline class="st5" points="279.9,333.8 279.9,378.4 250,361.2 219.9,378.4 219.9,332.6 "/>
</svg>
