<?xml version="1.0" encoding="utf-8"?>
<!-- Generator: Adobe Illustrator 25.1.0, SVG Export Plug-In . SVG Version: 6.00 Build 0)  -->
<svg version="1.1" id="레이어_1" xmlns="http://www.w3.org/2000/svg" xmlns:xlink="http://www.w3.org/1999/xlink" x="0px"
	 y="0px" viewBox="0 0 500 500" style="enable-background:new 0 0 500 500;" xml:space="preserve">
<style type="text/css">
	.st0{fill:#CBA585;}
	.st1{font-family:'H2wulB';}
	.st2{font-size:89px;}
	.st3{fill:none;stroke:#000000;stroke-width:10;stroke-linecap:round;stroke-miterlimit:10;}
	.st4{fill:none;stroke:#CBA585;stroke-width:10;stroke-linecap:round;stroke-miterlimit:10;}
</style>
<text transform="matrix(1 0 0 1 194.5582 179.3656)" class="st0 st1 st2">03</text>
<path class="st3" d="M183.8,244.6c13.8-21.5,38-35.7,65.5-35.4c41.8,0.4,75.9,34.8,76,76.6c0,1.8-0.1,3.6-0.2,5.4
	c-0.1,0.8,1,1.2,1.5,0.5l20.3-33.8"/>
<path class="st4" d="M151,313.7l19.4-34.5c0.4-0.7,1.6-0.4,1.5,0.5c-0.3,3.2-0.3,6.5-0.2,9.8c1.7,40,34.5,72.2,74.4,73.3
	c28.9,0.8,54.3-14.3,68.1-37.2"/>
</svg>
