<svg width="207" height="247" xmlns="http://www.w3.org/2000/svg" 
xmlns:xlink="http://www.w3.org/1999/xlink" xml:space="preserve" overflow="hidden">
<g transform="translate(-540 -788)"><g>
<path d="M705.5 890C705.5 922.861 678.637 949.5 645.5 949.5 612.363 949.5 585.5 922.861 585.5 890 585.5 857.139 612.363 830.5 645.5 830.5 678.637 830.5 705.5 857.139 705.5 890Z"
stroke="#CBA585" stroke-width="13.3375" stroke-linecap="butt" 
stroke-linejoin="miter" stroke-miterlimit="8" stroke-opacity="1" 
fill="none" fill-rule="evenodd"/>
<path d="M685.5 890C685.5 911.815 667.591 929.5 645.5 929.5 623.409 929.5 605.5 911.815 605.5 890 605.5 868.185 623.409 850.5 645.5 850.5 667.591 850.5 685.5 868.185 685.5 890Z" stroke="#CBA585" stroke-width="13.3375" stroke-linecap="butt" stroke-linejoin="miter" stroke-miterlimit="8" stroke-opacity="1" fill="none" fill-rule="evenodd"/><path d="M644.933 796 668.416 811.072 696.328 811.072 707.868 836.281 731.352 851.22 727.46 878.696 739 903.906 720.75 924.846 716.725 952.19 690.021 960.059 671.771 981 644.933 973.131 618.229 981 599.979 960.059 573.276 952.19 569.25 924.846 551 903.906 562.541 878.696 558.649 851.22 582.132 836.281 593.672 811.072 621.584 811.072Z" stroke="#000000" stroke-width="12.0036" stroke-linecap="round" stroke-linejoin="round" stroke-miterlimit="10" stroke-opacity="1" fill="none" fill-rule="evenodd"/><path d="M685.5 968.099 685.5 1027.5 645.633 1004.59 605.5 1027.5 605.5 966.5" stroke="#000000" stroke-width="10.6701" stroke-linecap="round" stroke-linejoin="round" stroke-miterlimit="10" stroke-opacity="1" fill="none" fill-rule="evenodd"/></g></g></svg>