<?xml version="1.0" encoding="utf-8"?>
<!-- Generator: Adobe Illustrator 25.1.0, SVG Export Plug-In . SVG Version: 6.00 Build 0)  -->
<svg version="1.1" id="레이어_1" xmlns="http://www.w3.org/2000/svg" xmlns:xlink="http://www.w3.org/1999/xlink" x="0px"
	 y="0px" viewBox="0 0 500 500" style="enable-background:new 0 0 500 500;" xml:space="preserve">
<style type="text/css">
	.st0{fill:#CBA585;}
	.st1{font-family:'H2wulB';}
	.st2{font-size:89px;}
	.st3{fill:none;stroke:#000000;stroke-width:10;stroke-linecap:round;stroke-linejoin:round;stroke-miterlimit:10;}
	.st4{fill:none;stroke:#CBA585;stroke-width:9;stroke-linecap:round;stroke-linejoin:round;stroke-miterlimit:10;}
	.st5{fill:none;stroke:#000000;stroke-width:10;stroke-linejoin:round;stroke-miterlimit:10;}
</style>
<text transform="matrix(1 0 0 1 194.5582 179.3656)" class="st0 st1 st2">05</text>
<path class="st3" d="M297.3,375.3H186.1c-3.4,0-6.2-2.8-6.2-6.2V226.9c0-3.4,2.8-6.2,6.2-6.2h111.2c3.4,0,6.2,2.8,6.2,6.2v122.8"/>
<polyline class="st4" points="211,284.7 237.7,310.8 275.4,266.9 "/>
<path class="st5" d="M296.2,375.3c0,0,9.4,0.5,15.6-3.3c6.7-4.2,6.1-9.3,6.1-9.3v-11.1H204.6v12c0,0-0.7,4.2-3.3,8
	c-2.7,3.8-6.7,3.8-6.7,3.8"/>
</svg>
