<svg width="500" height="500" xmlns="http://www.w3.org/2000/svg" xmlns:xlink="http://www.w3.org/1999/xlink" xml:space="preserve" overflow="hidden"><g transform="translate(-390 -110)"><g><path d="M688.823 484.031 591.333 484.031C590.683 484.031 590.073 483.74 589.667 483.229 589.265 482.729 589.115 482.068 589.255 481.437L594.145 459.745C594.364 458.776 595.229 458.088 596.224 458.088L683.927 458.088C684.921 458.088 685.781 458.776 686.005 459.745L690.896 481.437C691.036 482.068 690.885 482.729 690.479 483.229 690.079 483.74 689.464 484.031 688.817 484.031ZM593.989 479.776 686.156 479.776 682.229 462.344 597.927 462.344 593.989 479.776" fill="#0992E3"/></g><g><path d="M682.636 457.448 597.511 457.448C596.5 457.448 595.631 456.735 595.427 455.749 589.771 428.151 580.969 401.073 569.271 375.26 568.844 374.317 569.156 373.203 570.011 372.62 602.973 350.14 620.208 298.021 633.713 250.593 632.167 248.969 631.281 246.797 631.281 244.541 631.281 240.911 633.469 237.703 636.849 236.365 637.505 236.109 638.245 236.187 638.828 236.583 639.412 236.979 639.755 237.641 639.755 238.344L639.755 386.88C639.755 387.901 639.036 388.776 638.036 388.973 633.052 389.937 629.437 394.328 629.437 399.412 629.437 405.281 634.208 410.047 640.079 410.047 645.943 410.047 650.719 405.281 650.719 399.412 650.719 394.328 647.099 389.937 642.115 388.973 641.12 388.776 640.396 387.901 640.396 386.88L640.396 238.344C640.396 237.641 640.745 236.979 641.323 236.583 641.907 236.187 642.651 236.109 643.303 236.365 646.688 237.703 648.869 240.911 648.869 244.541 648.869 246.797 647.984 248.969 646.443 250.593 659.943 298.021 677.177 350.14 710.14 372.62 710.995 373.203 711.307 374.317 710.88 375.26 699.183 401.073 690.385 428.151 684.724 455.749 684.521 456.735 683.645 457.448 682.64 457.448ZM599.245 453.193 680.907 453.193C686.521 426.453 695.052 400.197 706.276 375.115 674.959 352.667 657.833 304.948 644.651 259.749L644.651 385.235C650.724 387.188 654.973 392.896 654.973 399.412 654.973 407.625 648.287 414.303 640.079 414.303 631.86 414.303 625.183 407.625 625.183 399.412 625.183 392.896 629.421 387.188 635.5 385.235L635.5 259.749C622.317 304.948 605.193 352.667 573.875 375.115 585.099 400.197 593.631 426.453 599.245 453.193" fill="#0992E3"/></g></g></svg>