<svg width="500" height="500" xmlns="http://www.w3.org/2000/svg" xmlns:xlink="http://www.w3.org/1999/xlink" xml:space="preserve" overflow="hidden"><g transform="translate(-390 -110)"><path d="M543.636 359.49 539.001 359.667 539.001 330.63 539.178 326.255C539.178 325.38 538.912 324.771 538.214 324.505 535.767 323.458 530.428 322.323 527.371 322.234 526.667 322.234 526.496 322.406 526.319 322.672L525.709 324.771C528.683 325.818 531.391 327.307 532.964 329.141L532.964 390.276C532.964 394.12 533.141 402.516 533.402 406.276L536.902 406.276C538.214 401.292 539.001 393.161 539.001 388.089L539.001 363.51 552.293 363.25C552.907 363.25 553.605 363.161 553.954 362.813 554.569 362.375 555.095 361.328 555.006 359.75 555.006 359.052 554.48 358.443 553.782 358.266 552.204 357.917 548.798 357.74 546.345 357.828ZM524.131 375.755C524.397 373.656 524.746 370.422 524.746 367.974L525.183 338.677 525.272 335.792C525.272 335.089 525.095 334.74 524.485 334.479 522.647 333.693 519.496 332.99 517.136 332.818 516.527 332.818 516.35 332.901 516.261 333.255L515.475 335.266C517.313 335.964 518.709 336.75 519.496 337.625L519.496 353.281 510.141 353.542 510.23 341.297 510.313 338.328C510.402 337.536 510.23 337.187 509.438 336.927 507.954 336.313 505.157 335.792 503.058 335.615 502.355 335.526 502.183 335.703 502.095 335.964L501.308 338.063C502.881 338.677 504.105 339.464 504.631 340.25L505.069 378.818C505.069 380.302 505.329 382.229 505.767 383.365L508.569 383.365C509.178 382.667 509.704 381.526 509.964 379.781 513.725 379.693 521.949 379.693 525.272 379.604 525.709 379.167 526.058 378.292 526.058 377.156 526.058 376.719 525.881 376.458 525.444 376.281ZM519.496 357.214 519.496 375.667 510.053 375.755 510.141 357.479ZM497.548 376.807C497.985 374.708 498.423 371.557 498.423 369.109L498.683 343.484 498.86 340.776C498.944 340.073 498.683 339.635 497.985 339.375 496.412 338.677 493.61 337.974 491.511 337.802 490.985 337.802 490.725 337.891 490.636 338.24L489.938 340.25C491.511 340.859 492.647 341.651 493.35 342.437L493.35 354.594 484.168 354.854 484.256 346.198 484.339 343.224C484.339 342.521 484.168 342.089 483.464 341.911 481.803 341.297 478.746 340.776 476.558 340.687 475.944 340.687 475.683 340.776 475.595 341.125L474.897 343.224C476.647 343.75 477.959 344.536 478.657 345.323L479.095 379.604C479.095 381.005 479.266 382.927 479.704 384.151L482.589 384.151C483.115 383.453 483.73 382.318 483.99 380.74 487.928 380.74 495.709 380.656 498.86 380.656 499.298 380.219 499.647 379.255 499.647 378.292 499.647 377.854 499.558 377.594 499.032 377.333ZM493.35 358.526 493.35 376.719 484.079 376.807 484.168 358.792Z" fill="#0992E3"/><path d="M624.092 369.896C617.967 370.333 573.451 370.859 568.118 370.771 565.404 370.771 561.295 370.422 558.409 369.896L557.8 371.12C557.711 371.469 557.8 371.734 558.06 371.906 560.248 373.745 563.482 375.495 566.633 376.542 568.732 375.844 573.191 374.969 575.378 374.797 580.014 374.531 620.066 374.005 626.191 374.094 628.81 374.094 633.972 374.271 636.331 374.531 637.118 374.182 638.17 372.781 638.17 371.297 638.17 370.599 637.644 370.073 637.034 369.896 635.019 369.198 630.383 368.672 627.238 368.583ZM612.722 399.37C607.649 399.63 591.993 399.719 586.133 399.63 584.472 399.63 583.946 398.932 583.946 397.448L583.946 388.26 584.123 384.24C584.123 383.276 583.685 382.839 582.81 382.578 580.623 382.141 575.639 381.792 572.753 381.792 572.139 381.792 571.878 381.964 571.79 382.318L571.352 384.24C573.717 384.766 576.076 385.724 577.56 386.865L577.56 396.656C577.56 401.38 579.488 403.479 584.998 403.479L622.779 403.219C623.3 403.219 623.654 403.13 624.003 402.87 624.352 402.432 624.961 401.38 624.961 399.719 624.961 399.109 624.441 398.672 623.826 398.495 622.076 398.146 618.144 397.88 615.519 397.88ZM575.461 357.042C575.461 360.802 576.951 362.375 581.587 362.375L622.863 361.766C623.3 361.766 623.566 361.677 623.915 361.411 624.264 360.974 624.79 360.016 624.79 358.526 624.79 357.917 624.352 357.568 623.738 357.479 622.165 357.13 618.493 356.865 616.045 356.953L613.597 358.266C608.258 358.615 590.769 358.88 583.42 358.792 582.284 358.792 581.935 358.354 581.935 357.302L581.935 347.333 619.628 346.719C619.977 346.458 620.415 345.583 620.415 344.62 620.415 344.271 620.326 344.099 619.977 343.833L618.227 343.047C618.93 340.687 619.805 335.875 620.066 332.99L621.029 330.891C621.201 330.453 621.201 330.104 620.852 329.755 620.154 329.229 618.404 328.266 617.529 327.833 617.092 327.656 616.482 327.656 616.128 327.833L613.597 329.141C607.998 329.406 584.732 329.755 579.925 329.667 577.738 329.667 574.154 329.406 571.79 328.969L571.264 329.844C571.18 330.193 571.18 330.453 571.529 330.719 573.451 332.203 576.076 333.693 578.873 334.651 581.149 334.042 584.56 333.427 586.133 333.339 589.805 333.078 606.946 332.729 612.982 332.818 613.071 335.089 612.982 340.776 612.722 342.958L611.321 343.396C607.56 343.661 588.321 344.01 582.113 344.01 579.925 343.661 574.154 343.484 571.701 343.484 571.18 343.484 570.915 343.75 570.831 344.01L570.477 345.672C572.493 346.021 574.326 346.807 575.461 347.859Z" fill="#0992E3"/><path d="M684.953 365.437C685.479 366.047 686.437 366.661 686.964 366.75 687.927 367.099 689.5 366.401 689.849 365.349 690.026 364.823 689.849 364.036 689.24 362.901 688.365 361.328 686.349 358.615 684.865 356.781L681.104 355.469 669.995 346.198C671.922 342.786 673.406 339.286 674.37 335.875 674.458 335.437 674.63 334.651 674.63 333.953 674.63 333.255 674.281 332.641 673.583 332.292 671.833 331.156 667.109 329.406 664.135 328.792 663.615 328.703 663.266 328.792 663.089 329.141L662.125 330.979C664.224 332.115 666.323 334.13 667.109 335.703 663.875 346.896 655.13 359.839 643.323 369.984 642.885 370.333 642.885 370.599 643.146 370.859L644.021 371.734C644.375 371.995 644.635 371.995 644.984 371.646 654.604 365.437 662.391 357.74 667.724 349.693ZM687.578 400.333C680.578 400.333 675.505 396.047 675.505 388.875 675.505 381.88 680.578 377.505 687.578 377.505 694.484 377.505 699.646 381.88 699.646 388.875 699.646 396.047 694.484 400.333 687.578 400.333ZM687.578 373.135C676.729 373.135 668.859 379.604 668.859 388.875 668.859 398.672 676.729 405.406 687.578 405.406 698.333 405.406 706.292 398.672 706.292 388.875 706.292 379.604 698.333 373.135 687.578 373.135ZM712.24 350.917 706.292 351.182 706.292 330.802 706.469 326.255C706.469 325.38 706.203 324.771 705.417 324.505 702.969 323.458 697.547 322.323 694.313 322.234 693.698 322.234 693.437 322.406 693.349 322.672L692.646 324.771C695.797 325.818 698.505 327.396 700.083 329.229L700.083 359.927C700.083 363.776 700.172 370.771 700.521 374.182L704.281 374.182C705.417 370.073 706.292 363.51 706.292 357.917L706.292 355.031 721.245 354.766C721.859 354.766 722.557 354.594 722.906 354.328 723.521 353.891 724.047 352.755 723.958 351.182 723.958 350.568 723.432 349.958 722.734 349.781 721.156 349.432 717.573 349.255 715.036 349.344Z" fill="#0992E3"/><path d="M793.044 388.26C791.643 388.349 788.054 388.438 783.419 388.526L784.559 376.37 785.169 372.958C785.257 372.344 785.08 371.995 784.294 371.557 782.283 370.682 778.262 369.807 775.549 369.458 775.023 369.458 774.762 369.547 774.591 369.896L773.887 371.557C775.898 372.432 777.559 373.833 778.434 375.146L777.913 388.615C771.877 388.786 765.054 388.875 758.585 388.964L758.669 378.292 758.934 374.62C758.934 373.922 758.757 373.484 758.059 373.307 755.872 372.609 751.413 372.083 748.7 372.083 747.913 372.083 747.742 372.26 747.742 372.521L747.304 374.531C749.403 375.057 751.413 376.104 752.46 377.068L752.898 389.052C745.205 389.135 738.908 389.135 737.07 389.135 734.356 389.052 730.247 388.698 727.361 388.177L726.752 389.401C726.664 389.75 726.752 390.01 727.012 390.188 729.2 392.021 732.434 393.771 735.585 394.823 737.684 394.12 742.143 393.333 744.33 393.161 748.966 392.813 789.018 392.375 795.143 392.458 797.762 392.458 802.924 392.635 805.283 392.896 806.07 392.458 807.122 391.151 807.122 389.661 807.122 388.875 806.596 388.349 805.986 388.177 803.971 387.474 799.335 386.953 796.19 386.865ZM736.372 362.99C736.283 363.161 736.283 363.51 736.544 363.687 738.554 365.349 741.617 367.01 744.153 367.797 745.815 367.187 749.315 366.573 750.976 366.484 755.174 366.224 782.111 365.875 786.481 365.875 788.492 365.875 793.216 365.964 795.054 366.224 795.752 365.875 796.627 364.651 796.627 363.073 796.627 362.552 796.278 362.115 795.752 361.937 794.091 361.328 790.07 360.802 787.356 360.714L784.471 362.115C783.856 362.115 782.981 362.203 781.757 362.203L782.898 345.583 783.247 341.911C783.247 341.214 782.981 340.687 782.283 340.51 780.184 339.813 775.986 339.286 773.278 339.286 772.663 339.286 772.403 339.552 772.315 339.724L771.877 341.563C773.887 342.26 775.815 343.313 776.773 344.448L776.335 362.286 758.236 362.552 757.882 348.208 757.971 344.62C758.059 343.922 757.799 343.484 757.184 343.224 755.174 342.349 751.236 341.474 748.528 341.214 747.913 341.214 747.742 341.297 747.565 341.651L746.867 343.484C748.966 344.359 750.799 345.672 751.762 347.073L752.809 362.552 745.554 362.641C743.367 362.641 739.606 362.286 736.893 361.849ZM784.731 332.203C779.924 332.464 749.575 332.818 745.289 332.729 743.106 332.729 739.346 332.38 736.632 331.943L736.106 333.078C735.934 333.255 736.018 333.604 736.283 333.776 738.294 335.437 741.268 337.099 743.893 337.891 745.554 337.365 748.966 336.661 750.71 336.578 754.908 336.313 782.283 336.052 786.747 336.052 788.757 336.052 793.565 336.141 795.403 336.313 796.012 335.964 796.976 334.74 796.976 333.167 796.976 332.729 796.627 332.203 796.012 332.031 794.351 331.417 790.419 330.979 787.705 330.891Z" fill="#0992E3"/></g></svg>