<?xml version="1.0" encoding="utf-8"?>
<!-- Generator: Adobe Illustrator 25.1.0, SVG Export Plug-In . SVG Version: 6.00 Build 0)  -->
<svg version="1.1" id="레이어_1" xmlns="http://www.w3.org/2000/svg" xmlns:xlink="http://www.w3.org/1999/xlink" x="0px"
	 y="0px" viewBox="0 0 500 500" style="enable-background:new 0 0 500 500;" xml:space="preserve">
<style type="text/css">
	.st0{fill:#CBA585;stroke:#CBA585;stroke-miterlimit:10;}
	.st1{fill:none;}
	.st2{fill:#CBA585;stroke:#CBA585;stroke-width:2;stroke-miterlimit:10;}
</style>
<g>
	<path class="st0" d="M296,297.9h-97.5c-0.7,0-1.3-0.3-1.7-0.8c-0.4-0.5-0.6-1.2-0.4-1.8l4.9-21.7c0.2-1,1.1-1.7,2.1-1.7h87.7
		c1,0,1.9,0.7,2.1,1.7l4.9,21.7c0.1,0.6,0,1.3-0.4,1.8C297.2,297.6,296.6,297.9,296,297.9L296,297.9z M201.1,293.7h92.2l-3.9-17.4
		h-84.3L201.1,293.7"/>
</g>
<polyline class="st1" points="323.8,102.8 323.8,324.1 181.8,324.1 "/>
<path class="st2" d="M289.8,269.1h-85.1c-1,0-1.9-0.7-2.1-1.7c-5.7-27.6-14.5-54.7-26.2-80.5c-0.4-0.9-0.1-2.1,0.7-2.6
	c33-22.5,48.7-74.6,62.2-122c-1.5-1.6-2.4-3.8-2.4-6.1c0-3.6,2.2-6.8,5.6-8.2c0.7-0.3,1.4-0.2,2,0.2c0.6,0.4,0.9,1.1,0.9,1.8v148.5
	c0,1-0.7,1.9-1.7,2.1c-5,1-8.6,6.3-8.6,11.4c0,5.9,6.3,11.2,12.2,11.2c5.9,0,12.2-5.4,12.2-11.2c0-5.1-3.6-10.4-8.6-11.4
	c-1-0.2-1.7-1.1-1.7-2.1V50c0-0.7,0.3-1.4,0.9-1.8c0.6-0.4,1.3-0.5,2-0.2c3.4,1.3,5.6,4.5,5.6,8.2c0,2.3-0.9,4.4-2.4,6.1
	c13.5,47.4,29.2,99.6,62.2,122c0.9,0.6,1.2,1.7,0.7,2.6c-11.7,25.8-20.5,52.9-26.2,80.5C291.7,268.4,290.8,269.1,289.8,269.1
	L289.8,269.1z M206.4,264.8h81.7c5.6-26.7,14.1-53,25.4-78.1c-31.3-22.4-46.9-70.2-60.1-115.4v125.5c6.1,2,10.3,8.6,10.3,15.1
	c0,8.2-8.2,15.5-16.4,15.5c-8.2,0-16.4-7.3-16.4-15.5c0-6.5,4.2-13.2,10.3-15.1V71.4c-13.2,45.2-28.8,92.9-60.1,115.4
	C192.3,211.8,200.8,238.1,206.4,264.8"/>
<path class="st0" d="M149.9,396.7l-4.6,0.2v-29l0.2-4.4c0-0.9-0.3-1.5-1-1.8c-2.4-1-7.8-2.2-10.8-2.3c-0.7,0-0.9,0.2-1.1,0.4
	l-0.6,2.1c3,1,5.7,2.5,7.3,4.4v61.1c0,3.8,0.2,12.2,0.4,16h3.5c1.3-5,2.1-13.1,2.1-18.2v-24.6l13.3-0.3c0.6,0,1.3-0.1,1.7-0.4
	c0.6-0.4,1.1-1.5,1.1-3.1c0-0.7-0.5-1.3-1.2-1.5c-1.6-0.3-5-0.5-7.4-0.4L149.9,396.7z M130.4,413c0.3-2.1,0.6-5.3,0.6-7.8l0.4-29.3
	l0.1-2.9c0-0.7-0.2-1.1-0.8-1.3c-1.8-0.8-5-1.5-7.3-1.7c-0.6,0-0.8,0.1-0.9,0.4l-0.8,2c1.8,0.7,3.2,1.5,4,2.4v15.7l-9.4,0.3
	l0.1-12.2l0.1-3c0.1-0.8-0.1-1.1-0.9-1.4c-1.5-0.6-4.3-1.1-6.4-1.3c-0.7-0.1-0.9,0.1-1,0.3l-0.8,2.1c1.6,0.6,2.8,1.4,3.3,2.2
	l0.4,38.6c0,1.5,0.3,3.4,0.7,4.5h2.8c0.6-0.7,1.1-1.8,1.4-3.6c3.8-0.1,12-0.1,15.3-0.2c0.4-0.4,0.8-1.3,0.8-2.4
	c0-0.4-0.2-0.7-0.6-0.9L130.4,413z M125.7,394.4v18.5l-9.4,0.1l0.1-18.3L125.7,394.4z M103.8,414c0.4-2.1,0.9-5.3,0.9-7.7l0.3-25.6
	l0.2-2.7c0.1-0.7-0.2-1.1-0.9-1.4c-1.6-0.7-4.4-1.4-6.5-1.6c-0.5,0-0.8,0.1-0.9,0.4l-0.7,2c1.6,0.6,2.7,1.4,3.4,2.2v12.2l-9.2,0.3
	l0.1-8.7l0.1-3c0-0.7-0.2-1.1-0.9-1.3c-1.7-0.6-4.7-1.1-6.9-1.2c-0.6,0-0.9,0.1-1,0.4l-0.7,2.1c1.8,0.5,3.1,1.3,3.8,2.1l0.4,34.3
	c0,1.4,0.2,3.3,0.6,4.5h2.9c0.5-0.7,1.1-1.8,1.4-3.4c3.9,0,11.7-0.1,14.9-0.1c0.4-0.4,0.8-1.4,0.8-2.4c0-0.4-0.1-0.7-0.6-1
	L103.8,414z M99.6,395.7v18.2l-9.3,0.1l0.1-18L99.6,395.7z"/>
<path class="st0" d="M230.3,407.1c-6.1,0.4-50.6,1-56,0.9c-2.7,0-6.8-0.3-9.7-0.9l-0.6,1.2c-0.1,0.3,0,0.6,0.3,0.8
	c2.2,1.8,5.4,3.6,8.6,4.6c2.1-0.7,6.6-1.6,8.7-1.7c4.6-0.3,44.7-0.8,50.8-0.7c2.6,0,7.8,0.2,10.1,0.4c0.8-0.3,1.8-1.8,1.8-3.2
	c0-0.7-0.5-1.2-1.1-1.4c-2-0.7-6.7-1.2-9.8-1.3L230.3,407.1z M218.9,436.6c-5.1,0.3-20.7,0.3-26.6,0.3c-1.7,0-2.2-0.7-2.2-2.2v-9.2
	l0.2-4c0-1-0.4-1.4-1.3-1.7c-2.2-0.4-7.2-0.8-10.1-0.8c-0.6,0-0.9,0.2-1,0.5l-0.4,1.9c2.4,0.5,4.7,1.5,6.2,2.6v9.8
	c0,4.7,1.9,6.8,7.4,6.8l37.8-0.3c0.5,0,0.9-0.1,1.2-0.3c0.3-0.4,1-1.5,1-3.2c0-0.6-0.5-1-1.1-1.2c-1.8-0.3-5.7-0.6-8.3-0.6
	L218.9,436.6z M181.7,394.2c0,3.8,1.5,5.3,6.1,5.3l41.3-0.6c0.4,0,0.7-0.1,1.1-0.4c0.3-0.4,0.9-1.4,0.9-2.9c0-0.6-0.4-1-1.1-1
	c-1.6-0.3-5.2-0.6-7.7-0.5l-2.4,1.3c-5.3,0.3-22.8,0.6-30.2,0.5c-1.1,0-1.5-0.4-1.5-1.5v-10l37.7-0.6c0.3-0.3,0.8-1.1,0.8-2.1
	c0-0.3-0.1-0.5-0.4-0.8l-1.8-0.8c0.7-2.4,1.6-7.2,1.8-10.1l1-2.1c0.2-0.4,0.2-0.8-0.2-1.1c-0.7-0.5-2.4-1.5-3.3-1.9
	c-0.4-0.2-1-0.2-1.4,0l-2.5,1.3c-5.6,0.3-28.9,0.6-33.7,0.5c-2.2,0-5.8-0.3-8.1-0.7l-0.5,0.9c-0.1,0.3-0.1,0.6,0.3,0.9
	c1.9,1.5,4.5,3,7.3,3.9c2.3-0.6,5.7-1.2,7.3-1.3c3.7-0.3,20.8-0.6,26.8-0.5c0.1,2.3,0,8-0.3,10.1l-1.4,0.4c-3.8,0.3-23,0.6-29.2,0.6
	c-2.2-0.3-8-0.5-10.4-0.5c-0.5,0-0.8,0.3-0.9,0.5l-0.4,1.7c2,0.3,3.8,1.1,5,2.2V394.2z"/>
<path class="st0" d="M291.2,402.6c0.5,0.6,1.5,1.2,2,1.3c1,0.3,2.5-0.3,2.9-1.4c0.2-0.5,0-1.3-0.6-2.4c-0.9-1.6-2.9-4.3-4.4-6.1
	l-3.8-1.3l-11.1-9.3c1.9-3.4,3.4-6.9,4.4-10.3c0.1-0.4,0.3-1.2,0.3-1.9c0-0.7-0.3-1.3-1-1.7c-1.8-1.1-6.5-2.9-9.4-3.5
	c-0.5-0.1-0.9,0-1,0.3l-1,1.8c2.1,1.1,4.2,3.2,5,4.7c-3.2,11.2-12,24.1-23.8,34.3c-0.4,0.3-0.4,0.6-0.2,0.9l0.9,0.9
	c0.4,0.3,0.6,0.3,1-0.1c9.6-6.2,17.4-13.9,22.7-22L291.2,402.6z M293.8,437.5c-7,0-12.1-4.3-12.1-11.5c0-7,5.1-11.4,12.1-11.4
	c6.9,0,12.1,4.4,12.1,11.4C305.9,433.3,300.7,437.5,293.8,437.5z M293.8,410.3c-10.8,0-18.7,6.5-18.7,15.7c0,9.8,7.9,16.5,18.7,16.5
	c10.8,0,18.7-6.7,18.7-16.5C312.5,416.8,304.6,410.3,293.8,410.3z M318.5,388.1l-5.9,0.3V368l0.2-4.5c0-0.9-0.3-1.5-1.1-1.8
	c-2.4-1-7.9-2.2-11.1-2.3c-0.6,0-0.9,0.2-1,0.4l-0.7,2.1c3.2,1,5.9,2.6,7.4,4.5v30.7c0,3.8,0.1,10.8,0.4,14.3h3.8
	c1.1-4.1,2-10.7,2-16.3v-2.9l15-0.3c0.6,0,1.3-0.2,1.7-0.4c0.6-0.4,1.1-1.6,1.1-3.1c0-0.6-0.5-1.2-1.2-1.4c-1.6-0.3-5.2-0.5-7.7-0.4
	L318.5,388.1z"/>
<path class="st0" d="M399.3,425.5c-1.4,0.1-5,0.2-9.6,0.3l1.1-12.2l0.6-3.4c0.1-0.6-0.1-1-0.9-1.4c-2-0.9-6-1.8-8.7-2.1
	c-0.5,0-0.8,0.1-1,0.4l-0.7,1.7c2,0.9,3.7,2.3,4.5,3.6l-0.5,13.5c-6,0.2-12.9,0.3-19.3,0.3l0.1-10.7l0.3-3.7c0-0.7-0.2-1.1-0.9-1.3
	c-2.2-0.7-6.6-1.2-9.4-1.2c-0.8,0-1,0.2-1,0.4l-0.4,2c2.1,0.5,4.1,1.6,5.2,2.5l0.4,12c-7.7,0.1-14,0.1-15.8,0.1
	c-2.7-0.1-6.8-0.4-9.7-1l-0.6,1.2c-0.1,0.3,0,0.6,0.3,0.8c2.2,1.8,5.4,3.6,8.6,4.6c2.1-0.7,6.6-1.5,8.7-1.7
	c4.6-0.3,44.7-0.8,50.8-0.7c2.6,0,7.8,0.2,10.1,0.4c0.8-0.4,1.8-1.7,1.8-3.2c0-0.8-0.5-1.3-1.1-1.5c-2-0.7-6.7-1.2-9.8-1.3
	L399.3,425.5z M342.6,400.2c-0.1,0.2-0.1,0.5,0.2,0.7c2,1.7,5.1,3.3,7.6,4.1c1.7-0.6,5.2-1.2,6.8-1.3c4.2-0.3,31.1-0.6,35.5-0.6
	c2,0,6.7,0.1,8.6,0.3c0.7-0.3,1.6-1.6,1.6-3.2c0-0.5-0.3-1-0.9-1.1c-1.7-0.6-5.7-1.1-8.4-1.2l-2.9,1.4c-0.6,0-1.5,0.1-2.7,0.1
	l1.1-16.6l0.3-3.7c0-0.7-0.3-1.2-1-1.4c-2.1-0.7-6.3-1.2-9-1.2c-0.6,0-0.9,0.3-1,0.4l-0.4,1.8c2,0.7,3.9,1.8,4.9,2.9l-0.4,17.8
	l-18.1,0.3l-0.4-14.3l0.1-3.6c0.1-0.7-0.2-1.1-0.8-1.4c-2-0.9-5.9-1.8-8.7-2c-0.6,0-0.8,0.1-1,0.4l-0.7,1.8c2.1,0.9,3.9,2.2,4.9,3.6
	l1,15.5l-7.3,0.1c-2.2,0-5.9-0.4-8.7-0.8L342.6,400.2z M391,369.4c-4.8,0.3-35.2,0.6-39.4,0.5c-2.2,0-5.9-0.3-8.7-0.8l-0.5,1.1
	c-0.2,0.2-0.1,0.5,0.2,0.7c2,1.7,5,3.3,7.6,4.1c1.7-0.5,5.1-1.2,6.8-1.3c4.2-0.3,31.6-0.5,36-0.5c2,0,6.8,0.1,8.7,0.3
	c0.6-0.3,1.6-1.6,1.6-3.1c0-0.4-0.3-1-1-1.1c-1.7-0.6-5.6-1.1-8.3-1.1L391,369.4z"/>
</svg>
