<svg width="500" height="500" xmlns="http://www.w3.org/2000/svg" xmlns:xlink="http://www.w3.org/1999/xlink" xml:space="preserve" overflow="hidden"><g transform="translate(-390 -110)"><path d="M686 407.9 588.5 407.9C587.8 407.9 587.2 407.6 586.8 407.1 586.4 406.6 586.2 405.9 586.4 405.3L591.3 383.6C591.5 382.6 592.4 381.9 593.4 381.9L681.1 381.9C682.1 381.9 683 382.6 683.2 383.6L688.1 405.3C688.2 405.9 688.1 406.6 687.7 407.1 687.2 407.6 686.6 407.9 686 407.9L686 407.9ZM591.1 403.7 683.3 403.7 679.4 386.3 595.1 386.3 591.1 403.7" stroke="#0992E3" stroke-miterlimit="10" fill="#0992E3"/><path d="M713.8 212.8 713.8 434.1 571.8 434.1" stroke="#0992E3" fill="#0992E3"/><path d="M679.8 379.1 594.7 379.1C593.7 379.1 592.8 378.4 592.6 377.4 586.9 349.8 578.1 322.7 566.4 296.9 566 296 566.3 294.8 567.1 294.3 600.1 271.8 615.8 219.7 629.3 172.3 627.8 170.7 626.9 168.5 626.9 166.2 626.9 162.6 629.1 159.4 632.5 158 633.2 157.7 633.9 157.8 634.5 158.2 635.1 158.6 635.4 159.3 635.4 160L635.4 308.5C635.4 309.5 634.7 310.4 633.7 310.6 628.7 311.6 625.1 316.9 625.1 322 625.1 327.9 631.4 333.2 637.3 333.2 643.2 333.2 649.5 327.8 649.5 322 649.5 316.9 645.9 311.6 640.9 310.6 639.9 310.4 639.2 309.5 639.2 308.5L639.2 160C639.2 159.3 639.5 158.6 640.1 158.2 640.7 157.8 641.4 157.7 642.1 158 645.5 159.3 647.7 162.5 647.7 166.2 647.7 168.5 646.8 170.6 645.3 172.3 658.8 219.7 674.5 271.9 707.5 294.3 708.4 294.9 708.7 296 708.2 296.9 696.5 322.7 687.7 349.8 682 377.4 681.7 378.4 680.8 379.1 679.8 379.1L679.8 379.1ZM596.4 374.8 678.1 374.8C683.7 348.1 692.2 321.8 703.5 296.7 672.2 274.3 656.6 226.5 643.4 181.3L643.4 306.8C649.5 308.8 653.7 315.4 653.7 321.9 653.7 330.1 645.5 337.4 637.3 337.4 629.1 337.4 620.9 330.1 620.9 321.9 620.9 315.4 625.1 308.7 631.2 306.8L631.2 181.4C618 226.6 602.4 274.3 571.1 296.8 582.3 321.8 590.8 348.1 596.4 374.8" stroke="#0992E3" stroke-miterlimit="10" fill="#0992E3"/><path d="M539.9 506.7 535.3 506.9 535.3 477.9 535.5 473.5C535.5 472.6 535.2 472 534.5 471.7 532.1 470.7 526.7 469.5 523.7 469.4 523 469.4 522.8 469.6 522.6 469.8L522 471.9C525 472.9 527.7 474.4 529.3 476.3L529.3 537.4C529.3 541.2 529.5 549.6 529.7 553.4L533.2 553.4C534.5 548.4 535.3 540.3 535.3 535.2L535.3 510.6 548.6 510.3C549.2 510.3 549.9 510.2 550.3 509.9 550.9 509.5 551.4 508.4 551.4 506.8 551.4 506.1 550.9 505.5 550.2 505.3 548.6 505 545.2 504.8 542.8 504.9L539.9 506.7ZM520.4 523C520.7 520.9 521 517.7 521 515.2L521.4 485.9 521.5 483C521.5 482.3 521.3 481.9 520.7 481.7 518.9 480.9 515.7 480.2 513.4 480 512.8 480 512.6 480.1 512.5 480.4L511.7 482.4C513.5 483.1 514.9 483.9 515.7 484.8L515.7 500.5 506.3 500.8 506.4 488.6 506.5 485.6C506.6 484.8 506.4 484.5 505.6 484.2 504.1 483.6 501.3 483.1 499.2 482.9 498.5 482.8 498.3 483 498.2 483.2L497.4 485.3C499 485.9 500.2 486.7 500.7 487.5L501.1 526.1C501.1 527.6 501.4 529.5 501.8 530.6L504.6 530.6C505.2 529.9 505.7 528.8 506 527 509.8 526.9 518 526.9 521.3 526.8 521.7 526.4 522.1 525.5 522.1 524.4 522.1 524 521.9 523.7 521.5 523.5L520.4 523ZM515.7 504.4 515.7 522.9 506.3 523 506.4 504.7 515.7 504.4ZM493.8 524C494.2 521.9 494.7 518.7 494.7 516.3L495 490.7 495.2 488C495.3 487.3 495 486.9 494.3 486.6 492.7 485.9 489.9 485.2 487.8 485 487.3 485 487 485.1 486.9 485.4L486.2 487.4C487.8 488 488.9 488.8 489.6 489.6L489.6 501.8 480.4 502.1 480.5 493.4 480.6 490.4C480.6 489.7 480.4 489.3 479.7 489.1 478 488.5 475 488 472.8 487.9 472.2 487.9 471.9 488 471.8 488.3L471.1 490.4C472.9 490.9 474.2 491.7 474.9 492.5L475.3 526.8C475.3 528.2 475.5 530.1 475.9 531.3L478.8 531.3C479.3 530.6 479.9 529.5 480.2 527.9 484.1 527.9 491.9 527.8 495.1 527.8 495.5 527.4 495.9 526.4 495.9 525.4 495.9 525 495.8 524.7 495.3 524.4L493.8 524ZM489.6 505.7 489.6 523.9 480.3 524 480.4 506 489.6 505.7Z" stroke="#0992E3" stroke-miterlimit="10" fill="#0992E3"/><path d="M620.3 517.1C614.2 517.5 569.7 518.1 564.3 518 561.6 518 557.5 517.7 554.6 517.1L554 518.3C553.9 518.6 554 518.9 554.3 519.1 556.5 520.9 559.7 522.7 562.9 523.7 565 523 569.5 522.1 571.6 522 576.2 521.7 616.3 521.2 622.4 521.3 625 521.3 630.2 521.5 632.5 521.7 633.3 521.4 634.3 519.9 634.3 518.5 634.3 517.8 633.8 517.3 633.2 517.1 631.2 516.4 626.5 515.9 623.4 515.8L620.3 517.1ZM608.9 546.6C603.8 546.9 588.2 546.9 582.3 546.9 580.6 546.9 580.1 546.2 580.1 544.7L580.1 535.5 580.3 531.5C580.3 530.5 579.9 530.1 579 529.8 576.8 529.4 571.8 529 568.9 529 568.3 529 568 529.2 567.9 529.5L567.5 531.4C569.9 531.9 572.2 532.9 573.7 534L573.7 543.8C573.7 548.5 575.6 550.6 581.1 550.6L618.9 550.3C619.4 550.3 619.8 550.2 620.1 550 620.4 549.6 621.1 548.5 621.1 546.8 621.1 546.2 620.6 545.8 620 545.6 618.2 545.3 614.3 545 611.7 545L608.9 546.6ZM571.7 504.2C571.7 508 573.2 509.5 577.8 509.5L619.1 508.9C619.5 508.9 619.8 508.8 620.2 508.5 620.5 508.1 621.1 507.1 621.1 505.6 621.1 505 620.7 504.6 620 504.6 618.4 504.3 614.8 504 612.3 504.1L609.9 505.4C604.6 505.7 587.1 506 579.7 505.9 578.6 505.9 578.2 505.5 578.2 504.4L578.2 494.4 615.9 493.8C616.2 493.5 616.7 492.7 616.7 491.7 616.7 491.4 616.6 491.2 616.3 490.9L614.5 490.1C615.2 487.7 616.1 482.9 616.3 480L617.3 477.9C617.5 477.5 617.5 477.1 617.1 476.8 616.4 476.3 614.7 475.3 613.8 474.9 613.4 474.7 612.8 474.7 612.4 474.9L609.9 476.2C604.3 476.5 581 476.8 576.2 476.7 574 476.7 570.4 476.4 568.1 476L567.6 476.9C567.5 477.2 567.5 477.5 567.9 477.8 569.8 479.3 572.4 480.8 575.2 481.7 577.5 481.1 580.9 480.5 582.5 480.4 586.2 480.1 603.3 479.8 609.3 479.9 609.4 482.2 609.3 487.9 609 490L607.6 490.4C603.8 490.7 584.6 491 578.4 491 576.2 490.7 570.4 490.5 568 490.5 567.5 490.5 567.2 490.8 567.1 491L566.7 492.7C568.7 493 570.5 493.8 571.7 494.9L571.7 504.2Z" stroke="#0992E3" stroke-miterlimit="10" fill="#0992E3"/><path d="M681.2 512.6C681.7 513.2 682.7 513.8 683.2 513.9 684.2 514.2 685.7 513.6 686.1 512.5 686.3 512 686.1 511.2 685.5 510.1 684.6 508.5 682.6 505.8 681.1 504L677.3 502.7 666.2 493.4C668.1 490 669.6 486.5 670.6 483.1 670.7 482.7 670.9 481.9 670.9 481.2 670.9 480.5 670.6 479.9 669.9 479.5 668.1 478.4 663.4 476.6 660.5 476 660 475.9 659.6 476 659.5 476.3L658.5 478.1C660.6 479.2 662.7 481.3 663.5 482.8 660.3 494 651.5 506.9 639.7 517.1 639.3 517.4 639.3 517.7 639.5 518L640.4 518.9C640.8 519.2 641 519.2 641.4 518.8 651 512.6 658.8 504.9 664.1 496.8L681.2 512.6ZM683.8 547.5C676.8 547.5 671.7 543.2 671.7 536 671.7 529 676.8 524.6 683.8 524.6 690.7 524.6 695.9 529 695.9 536 695.9 543.3 690.7 547.5 683.8 547.5ZM683.8 520.3C673 520.3 665.1 526.8 665.1 536 665.1 545.8 673 552.5 683.8 552.5 694.6 552.5 702.5 545.8 702.5 536 702.5 526.8 694.6 520.3 683.8 520.3ZM708.5 498.1 702.6 498.4 702.6 478 702.8 473.5C702.8 472.6 702.5 472 701.7 471.7 699.3 470.7 693.8 469.5 690.6 469.4 690 469.4 689.7 469.6 689.6 469.8L688.9 471.9C692.1 472.9 694.8 474.5 696.3 476.4L696.3 507.1C696.3 510.9 696.4 517.9 696.7 521.4L700.5 521.4C701.6 517.3 702.5 510.7 702.5 505.1L702.5 502.2 717.5 501.9C718.1 501.9 718.8 501.7 719.2 501.5 719.8 501.1 720.3 499.9 720.3 498.4 720.3 497.8 719.8 497.2 719.1 497 717.5 496.7 713.9 496.5 711.4 496.6L708.5 498.1Z" stroke="#0992E3" stroke-miterlimit="10" fill="#0992E3"/><path d="M789.3 535.5C787.9 535.6 784.3 535.7 779.7 535.8L780.8 523.6 781.4 520.2C781.5 519.6 781.3 519.2 780.5 518.8 778.5 517.9 774.5 517 771.8 516.7 771.3 516.7 771 516.8 770.8 517.1L770.1 518.8C772.1 519.7 773.8 521.1 774.6 522.4L774.1 535.9C768.1 536.1 761.2 536.2 754.8 536.2L754.9 525.5 755.2 521.8C755.2 521.1 755 520.7 754.3 520.5 752.1 519.8 747.7 519.3 744.9 519.3 744.1 519.3 743.9 519.5 743.9 519.7L743.5 521.7C745.6 522.2 747.6 523.3 748.7 524.2L749.1 536.2C741.4 536.3 735.1 536.3 733.3 536.3 730.6 536.2 726.5 535.9 723.6 535.3L723 536.5C722.9 536.8 723 537.1 723.3 537.3 725.5 539.1 728.7 540.9 731.9 541.9 734 541.2 738.5 540.4 740.6 540.2 745.2 539.9 785.3 539.4 791.4 539.5 794 539.5 799.2 539.7 801.5 539.9 802.3 539.5 803.3 538.2 803.3 536.7 803.3 535.9 802.8 535.4 802.2 535.2 800.2 534.5 795.5 534 792.4 533.9L789.3 535.5ZM732.6 510.2C732.5 510.4 732.5 510.7 732.8 510.9 734.8 512.6 737.9 514.2 740.4 515 742.1 514.4 745.6 513.8 747.2 513.7 751.4 513.4 778.3 513.1 782.7 513.1 784.7 513.1 789.4 513.2 791.3 513.4 792 513.1 792.9 511.8 792.9 510.2 792.9 509.7 792.6 509.2 792 509.1 790.3 508.5 786.3 508 783.6 507.9L780.7 509.3C780.1 509.3 779.2 509.4 778 509.4L779.1 492.8 779.4 489.1C779.4 488.4 779.1 487.9 778.4 487.7 776.3 487 772.1 486.5 769.4 486.5 768.8 486.5 768.5 486.8 768.4 486.9L768 488.7C770 489.4 771.9 490.5 772.9 491.6L772.5 509.4 754.4 509.7 754 495.4 754.1 491.8C754.2 491.1 753.9 490.7 753.3 490.4 751.3 489.5 747.4 488.6 744.6 488.4 744 488.4 743.8 488.5 743.6 488.8L742.9 490.6C745 491.5 746.8 492.8 747.8 494.2L748.8 509.7 741.5 509.8C739.3 509.8 735.6 509.4 732.8 509L732.6 510.2ZM781 479.4C776.2 479.7 745.8 480 741.6 479.9 739.4 479.9 735.7 479.6 732.9 479.1L732.4 480.2C732.2 480.4 732.3 480.7 732.6 480.9 734.6 482.6 737.6 484.2 740.2 485 741.9 484.5 745.3 483.8 747 483.7 751.2 483.4 778.6 483.2 783 483.2 785 483.2 789.8 483.3 791.7 483.5 792.3 483.2 793.3 481.9 793.3 480.4 793.3 480 793 479.4 792.3 479.3 790.6 478.7 786.7 478.2 784 478.2L781 479.4Z" stroke="#0992E3" stroke-miterlimit="10" fill="#0992E3"/></g></svg>